<?xml version="1.0" encoding="utf-8"?>
<!-- Generator: Adobe Illustrator 28.3.0, SVG Export Plug-In . SVG Version: 6.00 Build 0)  -->
<svg version="1.1" id="Layer_1" xmlns="http://www.w3.org/2000/svg" xmlns:xlink="http://www.w3.org/1999/xlink" x="0px" y="0px"
	 viewBox="0 0 376.9 626" style="enable-background:new 0 0 376.9 626;" xml:space="preserve">
<style type="text/css">
	.st0{fill:url(#SVGID_1_);}
	.st1{fill:url(#SVGID_00000062181684990570088290000010062978815820705727_);}
	.st2{fill:url(#SVGID_00000163072249284168103020000018206665509182032307_);}
	.st3{fill:url(#SVGID_00000156582579131122085920000016514547907171541411_);}
	.st4{fill:url(#SVGID_00000164510014150807703780000017138868815710573473_);}
	.st5{fill:url(#SVGID_00000089538548726663613490000002514220593894223512_);}
	.st6{fill:url(#SVGID_00000108277323527260611080000016006552836415482788_);}
	.st7{fill:url(#SVGID_00000115475029777107937950000009794961800108575366_);}
	.st8{fill:url(#SVGID_00000161606815050031164860000000018241065294963603_);}
	.st9{fill:url(#SVGID_00000003096543289972229330000013076252192132323216_);}
	.st10{fill:url(#SVGID_00000072989459548793727730000010738243227000320696_);}
	.st11{fill:url(#SVGID_00000070108356221457874160000011533538138954933684_);}
	.st12{fill:url(#SVGID_00000160159402501913840310000017966720867396872076_);}
	.st13{fill:url(#SVGID_00000159443437000307065200000017264781176927910323_);}
	.st14{fill:url(#SVGID_00000124850610600952546080000012194109996858864566_);}
	.st15{fill:url(#SVGID_00000156564601180641986000000010897532376582075794_);}
	.st16{fill:url(#SVGID_00000042709480750468662500000002967058118382620057_);}
	.st17{fill:url(#SVGID_00000101802274126888753590000001684469423638730390_);}
	.st18{fill:url(#SVGID_00000048495966661624099870000000879914498081053085_);}
	.st19{fill:url(#SVGID_00000178913248828094688270000016747635473756367288_);}
	.st20{fill:url(#SVGID_00000009570851714340079510000001169740332880874408_);}
	.st21{fill:url(#SVGID_00000121973836224023724040000014446297718244709767_);}
	.st22{fill:url(#SVGID_00000123408953964403022960000018116797490525973888_);}
	.st23{fill:url(#SVGID_00000122719844962870666010000016633759769100524446_);}
	.st24{fill:url(#SVGID_00000042696482174689883110000011969419652020305079_);}
	.st25{fill:url(#SVGID_00000066494374453296371600000001648769923688423097_);}
	.st26{fill:url(#SVGID_00000000196283769044018180000012823843148636424084_);}
	.st27{fill:url(#SVGID_00000029024017674299661350000017172660565364921789_);}
	.st28{fill:url(#SVGID_00000043419884447291837780000000762472723212436643_);}
	.st29{fill:url(#SVGID_00000147187891443806363380000006014397757937099162_);}
	.st30{fill:url(#SVGID_00000074411488072996091210000005100476445952897201_);}
	.st31{fill:url(#SVGID_00000121254338999203791450000016716965767564990119_);}
	.st32{fill:url(#SVGID_00000103949390403162461840000007506279584758806938_);}
	.st33{fill:url(#SVGID_00000126311991709498003540000016520680878404520334_);}
	.st34{fill:url(#SVGID_00000054246565208113575210000017041804765767810949_);}
	.st35{fill:url(#SVGID_00000051367757587103210330000012666814813036049328_);}
	.st36{fill:url(#SVGID_00000108293919113264579560000014349715549567793595_);}
	.st37{fill:url(#SVGID_00000042699711381257162430000015258071831851425180_);}
	.st38{fill:url(#SVGID_00000103974021158788948920000009932256279973658266_);}
	.st39{fill:url(#SVGID_00000034055123922343789200000012251873647956072851_);}
	.st40{fill:url(#SVGID_00000013164885294287775400000008381661637878602149_);}
	.st41{fill:url(#SVGID_00000146473184325283875660000011841288236421975998_);}
	.st42{fill:url(#SVGID_00000165930076705617738090000004413420628057433262_);}
	.st43{fill:url(#SVGID_00000152259057688322609410000017881458320393538452_);}
	.st44{fill:url(#SVGID_00000103950874923360205990000003685439326026461077_);}
	.st45{fill:url(#SVGID_00000173155151935683477710000008376450366925826710_);}
	.st46{fill:url(#SVGID_00000032647663725835760740000014520829854586314624_);}
	.st47{fill:url(#SVGID_00000065057728015491725400000017634945229989510288_);}
	.st48{fill:url(#SVGID_00000101063243839836333570000005904698625468810413_);}
	.st49{fill:url(#SVGID_00000078034455955627391770000001998096326116317091_);}
	.st50{fill:url(#SVGID_00000121974923748043415910000005740236550044135855_);}
	.st51{fill:url(#SVGID_00000106856922516035215560000011234175975868953760_);}
	.st52{fill:url(#SVGID_00000182496662236960830010000002061960639219913092_);}
	.st53{fill:url(#SVGID_00000078742113533782973940000004242854986723690911_);}
	.st54{fill:url(#SVGID_00000056391162747930635300000014709689677618297504_);}
	.st55{fill:url(#SVGID_00000011023502914769256430000017485969145659167412_);}
	.st56{fill:url(#SVGID_00000021118296962320239540000001394814933798556343_);}
	.st57{fill:url(#SVGID_00000031178327126777760270000012182569594404409477_);}
	.st58{fill:url(#SVGID_00000088844890511572628910000007930754792532954548_);}
	.st59{fill:url(#SVGID_00000110469500320552612580000001597775841924209812_);}
	.st60{fill:url(#SVGID_00000143599578491061477040000000409825004456301444_);}
	.st61{fill:url(#SVGID_00000143594150518719061740000006814356784678862259_);}
	.st62{fill:url(#SVGID_00000142888216279569244100000015968182151118658448_);}
	.st63{fill:url(#SVGID_00000051371840458697581670000003842380515126021567_);}
	.st64{fill:url(#SVGID_00000009551318259715091720000002717773337459284640_);}
	.st65{fill:url(#SVGID_00000052096909013674900740000012623451281117269685_);}
	.st66{fill:url(#SVGID_00000043416515814183943090000008640494244885221522_);}
	.st67{fill:url(#SVGID_00000142881400915337825200000017554596331573241472_);}
	.st68{fill:url(#SVGID_00000097490807076082022530000011361038282563827624_);}
	.st69{fill:url(#SVGID_00000169547886902475758940000014399802555843433893_);}
	.st70{fill:url(#SVGID_00000146463962939966428510000010807780444213655460_);}
	.st71{fill:url(#SVGID_00000057860539580502267820000008610955461092190629_);}
</style>
<g>
	
		<linearGradient id="SVGID_1_" gradientUnits="userSpaceOnUse" x1="28.6297" y1="630.9819" x2="45.2581" y2="-6.167" gradientTransform="matrix(-1 0 0 1 376.909 0)">
		<stop  offset="0" style="stop-color:#000C19"/>
		<stop  offset="0.41" style="stop-color:#000F1E"/>
		<stop  offset="0.91" style="stop-color:#001B2D"/>
		<stop  offset="1" style="stop-color:#001E31"/>
	</linearGradient>
	<path class="st0" d="M341.6,582.3c3.2,0,6.1,1.1,9,3.2c2.8,2.2,4.8,4.8,5.9,7.9l4.8,13.2h-12.6c-1.4,0-2.7,0.6-3.6,1.8
		c-0.8,1.1-1.2,2.3-1.2,3.5c0,1.3,0.4,2.5,1.3,3.6c0.9,1.2,2.1,1.8,3.6,1.8h19.5v-35h8.8V626h-28.4c-3.8,0-7-1.4-9.6-4.1
		c-2.7-2.8-4-6.1-4-10c0-3.5,1.1-6.5,3.4-9.3c2.2-2.7,5-4.2,8.4-4.6l2-0.3l-0.8-1.8c-1.8-4.1-4.4-5-6.3-5h-14.5v35h-8.8v-43.7H341.6
		L341.6,582.3z"/>
	
		<linearGradient id="SVGID_00000022527146173287890990000003011700759868774806_" gradientUnits="userSpaceOnUse" x1="92.1064" y1="632.639" x2="108.7347" y2="-4.51" gradientTransform="matrix(-1 0 0 1 376.909 0)">
		<stop  offset="0" style="stop-color:#000C19"/>
		<stop  offset="0.41" style="stop-color:#000F1E"/>
		<stop  offset="0.91" style="stop-color:#001B2D"/>
		<stop  offset="1" style="stop-color:#001E31"/>
	</linearGradient>
	<path style="fill:url(#SVGID_00000022527146173287890990000003011700759868774806_);" d="M290,582.3c-3.2,0-6.1,1.1-9,3.2
		c-2.8,2.2-4.8,4.8-5.9,7.9l-4.8,13.2h12.6c1.4,0,2.7,0.6,3.6,1.8c0.8,1.1,1.2,2.3,1.2,3.5c0,1.3-0.4,2.5-1.3,3.6
		c-0.9,1.2-2.1,1.8-3.6,1.8h-19.5v-35h-8.8V626h28.4c3.8,0,7-1.4,9.6-4.1c2.7-2.8,4-6.1,4-10c0-3.5-1.1-6.5-3.4-9.3
		c-2.2-2.7-5-4.2-8.4-4.6l-2-0.3l0.8-1.8c1.8-4.1,4.4-5,6.3-5h14.5v35h8.8v-43.7H290z"/>
	
		<linearGradient id="SVGID_00000000219964894415815530000006747179936354254783_" gradientUnits="userSpaceOnUse" x1="155.908" y1="634.3045" x2="172.536" y2="-2.8439" gradientTransform="matrix(-1 0 0 1 376.909 0)">
		<stop  offset="0" style="stop-color:#000C19"/>
		<stop  offset="0.41" style="stop-color:#000F1E"/>
		<stop  offset="0.91" style="stop-color:#001B2D"/>
		<stop  offset="1" style="stop-color:#001E31"/>
	</linearGradient>
	<path style="fill:url(#SVGID_00000000219964894415815530000006747179936354254783_);" d="M214.2,582.3c3.2,0,6.1,1.1,9,3.2
		c2.8,2.2,4.8,4.8,5.9,7.9l4.8,13.2h-12.6c-1.4,0-2.7,0.6-3.6,1.8c-0.8,1.1-1.2,2.3-1.2,3.5c0,1.3,0.4,2.5,1.3,3.6
		c0.9,1.2,2.1,1.8,3.6,1.8h19.5v-35h8.8V626h-28.4c-3.8,0-7-1.4-9.6-4.1c-2.7-2.8-4-6.1-4-10c0-3.5,1.1-6.5,3.4-9.3
		c2.2-2.7,5-4.2,8.4-4.6l2-0.3l-0.8-1.8c-1.8-4.1-4.4-5-6.3-5h-14.5v35h-8.8v-43.7H214.2z"/>
	
		<linearGradient id="SVGID_00000124139672321127516410000017319265877529287563_" gradientUnits="userSpaceOnUse" x1="219.3847" y1="635.9617" x2="236.0136" y2="-1.187" gradientTransform="matrix(-1 0 0 1 376.909 0)">
		<stop  offset="0" style="stop-color:#000C19"/>
		<stop  offset="0.41" style="stop-color:#000F1E"/>
		<stop  offset="0.91" style="stop-color:#001B2D"/>
		<stop  offset="1" style="stop-color:#001E31"/>
	</linearGradient>
	<path style="fill:url(#SVGID_00000124139672321127516410000017319265877529287563_);" d="M162.7,582.3c-3.2,0-6.1,1.1-9,3.2
		c-2.8,2.2-4.8,4.8-5.9,7.9l-4.8,13.2h12.6c1.4,0,2.7,0.6,3.6,1.8c0.8,1.1,1.2,2.3,1.2,3.5c0,1.3-0.4,2.5-1.3,3.6
		c-0.9,1.2-2.1,1.8-3.6,1.8h-19.5v-35h-8.8V626h28.4c3.8,0,7-1.4,9.6-4.1c2.7-2.8,4-6.1,4-10c0-3.5-1.1-6.5-3.4-9.3
		c-2.2-2.7-5-4.2-8.4-4.6l-2-0.3l0.8-1.8c1.8-4.1,4.4-5,6.3-5h14.5v35h8.8v-43.7H162.7z"/>
	
		<linearGradient id="SVGID_00000093156887860517453200000015367963750138468267_" gradientUnits="userSpaceOnUse" x1="283.1843" y1="637.6251" x2="299.8123" y2="0.476" gradientTransform="matrix(-1 0 0 1 376.909 0)">
		<stop  offset="0" style="stop-color:#000C19"/>
		<stop  offset="0.41" style="stop-color:#000F1E"/>
		<stop  offset="0.91" style="stop-color:#001B2D"/>
		<stop  offset="1" style="stop-color:#001E31"/>
	</linearGradient>
	<path style="fill:url(#SVGID_00000093156887860517453200000015367963750138468267_);" d="M86.9,582.3c3.2,0,6.1,1.1,9,3.2
		c2.8,2.2,4.8,4.8,5.9,7.9l4.8,13.2H93.8c-1.4,0-2.7,0.6-3.6,1.8c-0.8,1.1-1.2,2.3-1.2,3.5c0,1.3,0.4,2.5,1.3,3.6
		c0.9,1.2,2.1,1.8,3.6,1.8h19.5v-35h8.8V626H93.8c-3.8,0-7-1.4-9.6-4.1c-2.7-2.8-4-6.1-4-10c0-3.5,1.1-6.5,3.4-9.3
		c2.2-2.7,5-4.2,8.4-4.6l2-0.3l-0.8-1.8c-1.8-4.1-4.4-5-6.3-5H72.3v35h-8.8v-43.7H86.9L86.9,582.3z"/>
	
		<linearGradient id="SVGID_00000103245344837959083010000012326092179533643948_" gradientUnits="userSpaceOnUse" x1="346.662" y1="639.2822" x2="363.29" y2="2.133" gradientTransform="matrix(-1 0 0 1 376.909 0)">
		<stop  offset="0" style="stop-color:#000C19"/>
		<stop  offset="0.41" style="stop-color:#000F1E"/>
		<stop  offset="0.91" style="stop-color:#001B2D"/>
		<stop  offset="1" style="stop-color:#001E31"/>
	</linearGradient>
	<path style="fill:url(#SVGID_00000103245344837959083010000012326092179533643948_);" d="M35.3,582.3c-3.2,0-6.1,1.1-9,3.2
		c-2.8,2.2-4.8,4.8-5.9,7.9l-4.8,13.2h12.6c1.4,0,2.7,0.6,3.6,1.8c0.8,1.1,1.2,2.3,1.2,3.5c0,1.3-0.4,2.5-1.3,3.6
		c-0.9,1.2-2.1,1.8-3.6,1.8H8.8v-35H0V626h28.4c3.8,0,7-1.4,9.6-4.1c2.7-2.8,4-6.1,4-10c0-3.5-1.1-6.5-3.4-9.3
		c-2.2-2.7-5-4.2-8.4-4.6l-2-0.3l0.8-1.8c1.8-4.1,4.4-5,6.3-5h14.5v35h8.8v-43.7H35.3z"/>
	
		<linearGradient id="SVGID_00000139985889055284472050000005713354467626761379_" gradientUnits="userSpaceOnUse" x1="27.2478" y1="630.9468" x2="43.8761" y2="-6.2019" gradientTransform="matrix(-1 0 0 1 376.909 0)">
		<stop  offset="0" style="stop-color:#000C19"/>
		<stop  offset="0.41" style="stop-color:#000F1E"/>
		<stop  offset="0.91" style="stop-color:#001B2D"/>
		<stop  offset="1" style="stop-color:#001E31"/>
	</linearGradient>
	<path style="fill:url(#SVGID_00000139985889055284472050000005713354467626761379_);" d="M341.6,529.3c3.2,0,6.1,1.1,9,3.2
		c2.8,2.2,4.8,4.8,5.9,7.9l4.8,13.2h-12.6c-1.4,0-2.7,0.6-3.6,1.8c-0.8,1.1-1.2,2.3-1.2,3.5c0,1.3,0.4,2.5,1.3,3.6
		c0.9,1.2,2.1,1.8,3.6,1.8h19.5v-35h8.8V573h-28.4c-3.8,0-7-1.4-9.6-4.1c-2.7-2.8-4-6.1-4-10c0-3.5,1.1-6.5,3.4-9.3
		c2.2-2.7,5-4.2,8.4-4.6l2-0.3l-0.8-1.8c-1.8-4.1-4.4-5-6.3-5h-14.5v35h-8.8v-43.7L341.6,529.3L341.6,529.3z"/>
	
		<linearGradient id="SVGID_00000068643236901901012150000007165271590849977758_" gradientUnits="userSpaceOnUse" x1="90.7245" y1="632.6039" x2="107.3529" y2="-4.5449" gradientTransform="matrix(-1 0 0 1 376.909 0)">
		<stop  offset="0" style="stop-color:#000C19"/>
		<stop  offset="0.41" style="stop-color:#000F1E"/>
		<stop  offset="0.91" style="stop-color:#001B2D"/>
		<stop  offset="1" style="stop-color:#001E31"/>
	</linearGradient>
	<path style="fill:url(#SVGID_00000068643236901901012150000007165271590849977758_);" d="M290,529.3c-3.2,0-6.1,1.1-9,3.2
		c-2.8,2.2-4.8,4.8-5.9,7.9l-4.8,13.2h12.6c1.4,0,2.7,0.6,3.6,1.8c0.8,1.1,1.2,2.3,1.2,3.5c0,1.3-0.4,2.5-1.3,3.6
		c-0.9,1.2-2.1,1.8-3.6,1.8h-19.5v-35h-8.8V573h28.4c3.8,0,7-1.4,9.6-4.1c2.7-2.8,4-6.1,4-10c0-3.5-1.1-6.5-3.4-9.3
		c-2.2-2.7-5-4.2-8.4-4.6l-2-0.3l0.8-1.8c1.8-4.1,4.4-5,6.3-5h14.5v35h8.8v-43.7L290,529.3L290,529.3z"/>
	
		<linearGradient id="SVGID_00000080899907989690925880000013372176005221072541_" gradientUnits="userSpaceOnUse" x1="154.5262" y1="634.2675" x2="171.1541" y2="-2.882" gradientTransform="matrix(-1 0 0 1 376.909 0)">
		<stop  offset="0" style="stop-color:#000C19"/>
		<stop  offset="0.41" style="stop-color:#000F1E"/>
		<stop  offset="0.91" style="stop-color:#001B2D"/>
		<stop  offset="1" style="stop-color:#001E31"/>
	</linearGradient>
	<path style="fill:url(#SVGID_00000080899907989690925880000013372176005221072541_);" d="M214.2,529.3c3.2,0,6.1,1.1,9,3.2
		c2.8,2.2,4.8,4.8,5.9,7.9l4.8,13.2h-12.6c-1.4,0-2.7,0.6-3.6,1.8c-0.8,1.1-1.2,2.3-1.2,3.5c0,1.3,0.4,2.5,1.3,3.6
		c0.9,1.2,2.1,1.8,3.6,1.8h19.5v-35h8.8V573h-28.4c-3.8,0-7-1.4-9.6-4.1c-2.7-2.8-4-6.1-4-10c0-3.5,1.1-6.5,3.4-9.3
		c2.2-2.7,5-4.2,8.4-4.6l2-0.3l-0.8-1.8c-1.8-4.1-4.4-5-6.3-5h-14.5v35h-8.8v-43.7L214.2,529.3L214.2,529.3z"/>
	
		<linearGradient id="SVGID_00000174563296388814936130000011328995234279605395_" gradientUnits="userSpaceOnUse" x1="218.0028" y1="635.9246" x2="234.6318" y2="-1.2249" gradientTransform="matrix(-1 0 0 1 376.909 0)">
		<stop  offset="0" style="stop-color:#000C19"/>
		<stop  offset="0.41" style="stop-color:#000F1E"/>
		<stop  offset="0.91" style="stop-color:#001B2D"/>
		<stop  offset="1" style="stop-color:#001E31"/>
	</linearGradient>
	<path style="fill:url(#SVGID_00000174563296388814936130000011328995234279605395_);" d="M162.7,529.3c-3.2,0-6.1,1.1-9,3.2
		c-2.8,2.2-4.8,4.8-5.9,7.9l-4.8,13.2h12.6c1.4,0,2.7,0.6,3.6,1.8c0.8,1.1,1.2,2.3,1.2,3.5c0,1.3-0.4,2.5-1.3,3.6
		c-0.9,1.2-2.1,1.8-3.6,1.8h-19.5v-35h-8.8V573h28.4c3.8,0,7-1.4,9.6-4.1c2.7-2.8,4-6.1,4-10c0-3.5-1.1-6.5-3.4-9.3
		c-2.2-2.7-5-4.2-8.4-4.6l-2-0.3l0.8-1.8c1.8-4.1,4.4-5,6.3-5h14.5v35h8.8v-43.7L162.7,529.3L162.7,529.3z"/>
	
		<linearGradient id="SVGID_00000014605204454369400980000000376499081287672461_" gradientUnits="userSpaceOnUse" x1="281.8033" y1="637.59" x2="298.4323" y2="0.4411" gradientTransform="matrix(-1 0 0 1 376.909 0)">
		<stop  offset="0" style="stop-color:#000C19"/>
		<stop  offset="0.41" style="stop-color:#000F1E"/>
		<stop  offset="0.91" style="stop-color:#001B2D"/>
		<stop  offset="1" style="stop-color:#001E31"/>
	</linearGradient>
	<path style="fill:url(#SVGID_00000014605204454369400980000000376499081287672461_);" d="M86.9,529.3c3.2,0,6.1,1.1,9,3.2
		c2.8,2.2,4.8,4.8,5.9,7.9l4.8,13.2H93.8c-1.4,0-2.7,0.6-3.6,1.8c-0.8,1.1-1.2,2.3-1.2,3.5c0,1.3,0.4,2.5,1.3,3.6
		c0.9,1.2,2.1,1.8,3.6,1.8h19.5v-35h8.8V573H93.8c-3.8,0-7-1.4-9.6-4.1c-2.7-2.8-4-6.1-4-10c0-3.5,1.1-6.5,3.4-9.3
		c2.2-2.7,5-4.2,8.4-4.6l2-0.3l-0.8-1.8c-1.8-4.1-4.4-5-6.3-5H72.3v35h-8.8v-43.7L86.9,529.3L86.9,529.3z"/>
	
		<linearGradient id="SVGID_00000055666419783857340760000004127773235953037709_" gradientUnits="userSpaceOnUse" x1="345.2802" y1="639.2472" x2="361.9082" y2="2.0982" gradientTransform="matrix(-1 0 0 1 376.909 0)">
		<stop  offset="0" style="stop-color:#000C19"/>
		<stop  offset="0.41" style="stop-color:#000F1E"/>
		<stop  offset="0.91" style="stop-color:#001B2D"/>
		<stop  offset="1" style="stop-color:#001E31"/>
	</linearGradient>
	<path style="fill:url(#SVGID_00000055666419783857340760000004127773235953037709_);" d="M35.3,529.3c-3.2,0-6.1,1.1-9,3.2
		c-2.8,2.2-4.8,4.8-5.9,7.9l-4.8,13.2h12.6c1.4,0,2.7,0.6,3.6,1.8c0.8,1.1,1.2,2.3,1.2,3.5c0,1.3-0.4,2.5-1.3,3.6
		c-0.9,1.2-2.1,1.8-3.6,1.8H8.8v-35H0V573h28.4c3.8,0,7-1.4,9.6-4.1c2.7-2.8,4-6.1,4-10c0-3.5-1.1-6.5-3.4-9.3
		c-2.2-2.7-5-4.2-8.4-4.6l-2-0.3l0.8-1.8c1.8-4.1,4.4-5,6.3-5h14.5v35h8.8v-43.7L35.3,529.3L35.3,529.3z"/>
	
		<linearGradient id="SVGID_00000065059073467152170490000011340085568133721507_" gradientUnits="userSpaceOnUse" x1="25.866" y1="630.9097" x2="42.4943" y2="-6.2389" gradientTransform="matrix(-1 0 0 1 376.909 0)">
		<stop  offset="0" style="stop-color:#000C19"/>
		<stop  offset="0.41" style="stop-color:#000F1E"/>
		<stop  offset="0.91" style="stop-color:#001B2D"/>
		<stop  offset="1" style="stop-color:#001E31"/>
	</linearGradient>
	<path style="fill:url(#SVGID_00000065059073467152170490000011340085568133721507_);" d="M341.6,476.3c3.2,0,6.1,1.1,9,3.2
		c2.8,2.2,4.8,4.8,5.9,7.9l4.8,13.2h-12.6c-1.4,0-2.7,0.6-3.6,1.8c-0.8,1.1-1.2,2.3-1.2,3.5s0.4,2.5,1.3,3.6
		c0.9,1.2,2.1,1.8,3.6,1.8h19.5v-35h8.8V520h-28.4c-3.8,0-7-1.4-9.6-4.1c-2.7-2.8-4-6.1-4-10c0-3.5,1.1-6.5,3.4-9.3
		c2.2-2.7,5-4.2,8.4-4.6l2-0.3l-0.8-1.8c-1.8-4.1-4.4-5-6.3-5h-14.5v35h-8.8v-43.7L341.6,476.3L341.6,476.3z"/>
	
		<linearGradient id="SVGID_00000133518180498163696790000007057023728458425271_" gradientUnits="userSpaceOnUse" x1="89.3427" y1="632.567" x2="105.9711" y2="-4.5818" gradientTransform="matrix(-1 0 0 1 376.909 0)">
		<stop  offset="0" style="stop-color:#000C19"/>
		<stop  offset="0.41" style="stop-color:#000F1E"/>
		<stop  offset="0.91" style="stop-color:#001B2D"/>
		<stop  offset="1" style="stop-color:#001E31"/>
	</linearGradient>
	<path style="fill:url(#SVGID_00000133518180498163696790000007057023728458425271_);" d="M290,476.3c-3.2,0-6.1,1.1-9,3.2
		c-2.8,2.2-4.8,4.8-5.9,7.9l-4.8,13.2h12.6c1.4,0,2.7,0.6,3.6,1.8c0.8,1.1,1.2,2.3,1.2,3.5c0,1.3-0.4,2.5-1.3,3.6
		c-0.9,1.2-2.1,1.8-3.6,1.8h-19.5v-35h-8.8V520h28.4c3.8,0,7-1.4,9.6-4.1c2.7-2.8,4-6.1,4-10c0-3.5-1.1-6.5-3.4-9.3
		c-2.2-2.7-5-4.2-8.4-4.6l-2-0.3l0.8-1.8c1.8-4.1,4.4-5,6.3-5h14.5v35h8.8v-43.7L290,476.3L290,476.3z"/>
	
		<linearGradient id="SVGID_00000056417135763680824910000010998243988278604679_" gradientUnits="userSpaceOnUse" x1="153.1443" y1="634.2324" x2="169.7723" y2="-2.9168" gradientTransform="matrix(-1 0 0 1 376.909 0)">
		<stop  offset="0" style="stop-color:#000C19"/>
		<stop  offset="0.41" style="stop-color:#000F1E"/>
		<stop  offset="0.91" style="stop-color:#001B2D"/>
		<stop  offset="1" style="stop-color:#001E31"/>
	</linearGradient>
	<path style="fill:url(#SVGID_00000056417135763680824910000010998243988278604679_);" d="M214.2,476.3c3.2,0,6.1,1.1,9,3.2
		c2.8,2.2,4.8,4.8,5.9,7.9l4.8,13.2h-12.6c-1.4,0-2.7,0.6-3.6,1.8c-0.8,1.1-1.2,2.3-1.2,3.5s0.4,2.5,1.3,3.6
		c0.9,1.2,2.1,1.8,3.6,1.8h19.5v-35h8.8V520h-28.4c-3.8,0-7-1.4-9.6-4.1c-2.7-2.8-4-6.1-4-10c0-3.5,1.1-6.5,3.4-9.3
		c2.2-2.7,5-4.2,8.4-4.6l2-0.3l-0.8-1.8c-1.8-4.1-4.4-5-6.3-5h-14.5v35h-8.8v-43.7L214.2,476.3L214.2,476.3z"/>
	
		<linearGradient id="SVGID_00000106131596735989036390000005511038811229491609_" gradientUnits="userSpaceOnUse" x1="216.6211" y1="635.8895" x2="233.2491" y2="-1.2598" gradientTransform="matrix(-1 0 0 1 376.909 0)">
		<stop  offset="0" style="stop-color:#000C19"/>
		<stop  offset="0.41" style="stop-color:#000F1E"/>
		<stop  offset="0.91" style="stop-color:#001B2D"/>
		<stop  offset="1" style="stop-color:#001E31"/>
	</linearGradient>
	<path style="fill:url(#SVGID_00000106131596735989036390000005511038811229491609_);" d="M162.7,476.3c-3.2,0-6.1,1.1-9,3.2
		c-2.8,2.2-4.8,4.8-5.9,7.9l-4.8,13.2h12.6c1.4,0,2.7,0.6,3.6,1.8c0.8,1.1,1.2,2.3,1.2,3.5s-0.4,2.5-1.3,3.6
		c-0.9,1.2-2.1,1.8-3.6,1.8h-19.5v-35h-8.8V520h28.4c3.8,0,7-1.4,9.6-4.1c2.7-2.8,4-6.1,4-10c0-3.5-1.1-6.5-3.4-9.3
		c-2.2-2.7-5-4.2-8.4-4.6l-2-0.3l0.8-1.8c1.8-4.1,4.4-5,6.3-5h14.5v35h8.8v-43.7L162.7,476.3L162.7,476.3z"/>
	
		<linearGradient id="SVGID_00000047053058892275486210000016099235261950888619_" gradientUnits="userSpaceOnUse" x1="280.4215" y1="637.553" x2="297.0504" y2="0.4042" gradientTransform="matrix(-1 0 0 1 376.909 0)">
		<stop  offset="0" style="stop-color:#000C19"/>
		<stop  offset="0.41" style="stop-color:#000F1E"/>
		<stop  offset="0.91" style="stop-color:#001B2D"/>
		<stop  offset="1" style="stop-color:#001E31"/>
	</linearGradient>
	<path style="fill:url(#SVGID_00000047053058892275486210000016099235261950888619_);" d="M86.9,476.3c3.2,0,6.1,1.1,9,3.2
		c2.8,2.2,4.8,4.8,5.9,7.9l4.8,13.2H93.8c-1.4,0-2.7,0.6-3.6,1.8c-0.8,1.1-1.2,2.3-1.2,3.5s0.4,2.5,1.3,3.6c0.9,1.2,2.1,1.8,3.6,1.8
		h19.5v-35h8.8V520H93.8c-3.8,0-7-1.4-9.6-4.1c-2.7-2.8-4-6.1-4-10c0-3.5,1.1-6.5,3.4-9.3c2.2-2.7,5-4.2,8.4-4.6l2-0.3l-0.8-1.8
		c-1.8-4.1-4.4-5-6.3-5H72.3v35h-8.8v-43.7L86.9,476.3L86.9,476.3z"/>
	
		<linearGradient id="SVGID_00000153692889948975769240000006528858522268876196_" gradientUnits="userSpaceOnUse" x1="343.8984" y1="639.2101" x2="360.5264" y2="2.0611" gradientTransform="matrix(-1 0 0 1 376.909 0)">
		<stop  offset="0" style="stop-color:#000C19"/>
		<stop  offset="0.41" style="stop-color:#000F1E"/>
		<stop  offset="0.91" style="stop-color:#001B2D"/>
		<stop  offset="1" style="stop-color:#001E31"/>
	</linearGradient>
	<path style="fill:url(#SVGID_00000153692889948975769240000006528858522268876196_);" d="M35.3,476.3c-3.2,0-6.1,1.1-9,3.2
		c-2.8,2.2-4.8,4.8-5.9,7.9l-4.8,13.2h12.6c1.4,0,2.7,0.6,3.6,1.8c0.8,1.1,1.2,2.3,1.2,3.5c0,1.3-0.4,2.5-1.3,3.6
		c-0.9,1.2-2.1,1.8-3.6,1.8H8.8v-35H0V520h28.4c3.8,0,7-1.4,9.6-4.1c2.7-2.8,4-6.1,4-10c0-3.5-1.1-6.5-3.4-9.3
		c-2.2-2.7-5-4.2-8.4-4.6l-2-0.3L29,490c1.8-4.1,4.4-5,6.3-5h14.5v35h8.8v-43.7L35.3,476.3L35.3,476.3z"/>
	
		<linearGradient id="SVGID_00000172419305278103397670000001435158241221695113_" gradientUnits="userSpaceOnUse" x1="24.4841" y1="630.8748" x2="41.1125" y2="-6.2748" gradientTransform="matrix(-1 0 0 1 376.909 0)">
		<stop  offset="0" style="stop-color:#000C19"/>
		<stop  offset="0.41" style="stop-color:#000F1E"/>
		<stop  offset="0.91" style="stop-color:#001B2D"/>
		<stop  offset="1" style="stop-color:#001E31"/>
	</linearGradient>
	<path style="fill:url(#SVGID_00000172419305278103397670000001435158241221695113_);" d="M341.6,423.3c3.2,0,6.1,1.1,9,3.2
		c2.8,2.2,4.8,4.8,5.9,7.9l4.8,13.2h-12.6c-1.4,0-2.7,0.6-3.6,1.8c-0.8,1.1-1.2,2.3-1.2,3.5s0.4,2.5,1.3,3.6
		c0.9,1.2,2.1,1.8,3.6,1.8h19.5v-35h8.8V467h-28.4c-3.8,0-7-1.4-9.6-4.1c-2.7-2.8-4-6.1-4-10c0-3.5,1.1-6.5,3.4-9.3
		c2.2-2.7,5-4.2,8.4-4.6l2-0.3l-0.8-1.8c-1.8-4.1-4.4-5-6.3-5h-14.5v35h-8.8v-43.7L341.6,423.3L341.6,423.3z"/>
	
		<linearGradient id="SVGID_00000042702960846991051330000001745077628017945751_" gradientUnits="userSpaceOnUse" x1="87.9609" y1="632.5319" x2="104.5892" y2="-4.6169" gradientTransform="matrix(-1 0 0 1 376.909 0)">
		<stop  offset="0" style="stop-color:#000C19"/>
		<stop  offset="0.41" style="stop-color:#000F1E"/>
		<stop  offset="0.91" style="stop-color:#001B2D"/>
		<stop  offset="1" style="stop-color:#001E31"/>
	</linearGradient>
	<path style="fill:url(#SVGID_00000042702960846991051330000001745077628017945751_);" d="M290,423.3c-3.2,0-6.1,1.1-9,3.2
		c-2.8,2.2-4.8,4.8-5.9,7.9l-4.8,13.2h12.6c1.4,0,2.7,0.6,3.6,1.8c0.8,1.1,1.2,2.3,1.2,3.5c0,1.3-0.4,2.5-1.3,3.6
		c-0.9,1.2-2.1,1.8-3.6,1.8h-19.5v-35h-8.8V467h28.4c3.8,0,7-1.4,9.6-4.1c2.7-2.8,4-6.1,4-10c0-3.5-1.1-6.5-3.4-9.3
		c-2.2-2.7-5-4.2-8.4-4.6l-2-0.3l0.8-1.8c1.8-4.1,4.4-5,6.3-5h14.5v35h8.8v-43.7L290,423.3L290,423.3z"/>
	
		<linearGradient id="SVGID_00000113336348328752033050000013574992897964456890_" gradientUnits="userSpaceOnUse" x1="151.7626" y1="634.1954" x2="168.3905" y2="-2.9538" gradientTransform="matrix(-1 0 0 1 376.909 0)">
		<stop  offset="0" style="stop-color:#000C19"/>
		<stop  offset="0.41" style="stop-color:#000F1E"/>
		<stop  offset="0.91" style="stop-color:#001B2D"/>
		<stop  offset="1" style="stop-color:#001E31"/>
	</linearGradient>
	<path style="fill:url(#SVGID_00000113336348328752033050000013574992897964456890_);" d="M214.2,423.3c3.2,0,6.1,1.1,9,3.2
		c2.8,2.2,4.8,4.8,5.9,7.9l4.8,13.2h-12.6c-1.4,0-2.7,0.6-3.6,1.8c-0.8,1.1-1.2,2.3-1.2,3.5s0.4,2.5,1.3,3.6
		c0.9,1.2,2.1,1.8,3.6,1.8h19.5v-35h8.8V467h-28.4c-3.8,0-7-1.4-9.6-4.1c-2.7-2.8-4-6.1-4-10c0-3.5,1.1-6.5,3.4-9.3
		c2.2-2.7,5-4.2,8.4-4.6l2-0.3l-0.8-1.8c-1.8-4.1-4.4-5-6.3-5h-14.5v35h-8.8v-43.7L214.2,423.3L214.2,423.3z"/>
	
		<linearGradient id="SVGID_00000169553376517685341210000001713816101358508430_" gradientUnits="userSpaceOnUse" x1="215.2393" y1="635.8525" x2="231.8673" y2="-1.2968" gradientTransform="matrix(-1 0 0 1 376.909 0)">
		<stop  offset="0" style="stop-color:#000C19"/>
		<stop  offset="0.41" style="stop-color:#000F1E"/>
		<stop  offset="0.91" style="stop-color:#001B2D"/>
		<stop  offset="1" style="stop-color:#001E31"/>
	</linearGradient>
	<path style="fill:url(#SVGID_00000169553376517685341210000001713816101358508430_);" d="M162.7,423.3c-3.2,0-6.1,1.1-9,3.2
		c-2.8,2.2-4.8,4.8-5.9,7.9l-4.8,13.2h12.6c1.4,0,2.7,0.6,3.6,1.8c0.8,1.1,1.2,2.3,1.2,3.5s-0.4,2.5-1.3,3.6
		c-0.9,1.2-2.1,1.8-3.6,1.8h-19.5v-35h-8.8V467h28.4c3.8,0,7-1.4,9.6-4.1c2.7-2.8,4-6.1,4-10c0-3.5-1.1-6.5-3.4-9.3
		c-2.2-2.7-5-4.2-8.4-4.6l-2-0.3l0.8-1.8c1.8-4.1,4.4-5,6.3-5h14.5v35h8.8v-43.7L162.7,423.3L162.7,423.3z"/>
	
		<linearGradient id="SVGID_00000070819692873308888100000014342756436489125049_" gradientUnits="userSpaceOnUse" x1="279.0399" y1="637.5179" x2="295.6678" y2="0.3693" gradientTransform="matrix(-1 0 0 1 376.909 0)">
		<stop  offset="0" style="stop-color:#000C19"/>
		<stop  offset="0.41" style="stop-color:#000F1E"/>
		<stop  offset="0.91" style="stop-color:#001B2D"/>
		<stop  offset="1" style="stop-color:#001E31"/>
	</linearGradient>
	<path style="fill:url(#SVGID_00000070819692873308888100000014342756436489125049_);" d="M86.9,423.3c3.2,0,6.1,1.1,9,3.2
		c2.8,2.2,4.8,4.8,5.9,7.9l4.8,13.2H93.8c-1.4,0-2.7,0.6-3.6,1.8c-0.8,1.1-1.2,2.3-1.2,3.5s0.4,2.5,1.3,3.6c0.9,1.2,2.1,1.8,3.6,1.8
		h19.5v-35h8.8V467H93.8c-3.8,0-7-1.4-9.6-4.1c-2.7-2.8-4-6.1-4-10c0-3.5,1.1-6.5,3.4-9.3c2.2-2.7,5-4.2,8.4-4.6l2-0.3l-0.8-1.8
		c-1.8-4.1-4.4-5-6.3-5H72.3v35h-8.8v-43.7L86.9,423.3L86.9,423.3z"/>
	
		<linearGradient id="SVGID_00000100342719245482429990000017102406833967178135_" gradientUnits="userSpaceOnUse" x1="342.5163" y1="639.1751" x2="359.1453" y2="2.0261" gradientTransform="matrix(-1 0 0 1 376.909 0)">
		<stop  offset="0" style="stop-color:#000C19"/>
		<stop  offset="0.41" style="stop-color:#000F1E"/>
		<stop  offset="0.91" style="stop-color:#001B2D"/>
		<stop  offset="1" style="stop-color:#001E31"/>
	</linearGradient>
	<path style="fill:url(#SVGID_00000100342719245482429990000017102406833967178135_);" d="M35.3,423.3c-3.2,0-6.1,1.1-9,3.2
		c-2.8,2.2-4.8,4.8-5.9,7.9l-4.8,13.2h12.6c1.4,0,2.7,0.6,3.6,1.8c0.8,1.1,1.2,2.3,1.2,3.5c0,1.3-0.4,2.5-1.3,3.6
		c-0.9,1.2-2.1,1.8-3.6,1.8H8.8v-35H0V467h28.4c3.8,0,7-1.4,9.6-4.1c2.7-2.8,4-6.1,4-10c0-3.5-1.1-6.5-3.4-9.3
		c-2.2-2.7-5-4.2-8.4-4.6l-2-0.3L29,437c1.8-4.1,4.4-5,6.3-5h14.5v35h8.8v-43.7L35.3,423.3L35.3,423.3z"/>
	
		<linearGradient id="SVGID_00000176008602165884641480000011145989063330218131_" gradientUnits="userSpaceOnUse" x1="23.1023" y1="630.8377" x2="39.7307" y2="-6.3117" gradientTransform="matrix(-1 0 0 1 376.909 0)">
		<stop  offset="0" style="stop-color:#000C19"/>
		<stop  offset="0.41" style="stop-color:#000F1E"/>
		<stop  offset="0.91" style="stop-color:#001B2D"/>
		<stop  offset="1" style="stop-color:#001E31"/>
	</linearGradient>
	<path style="fill:url(#SVGID_00000176008602165884641480000011145989063330218131_);" d="M341.6,370.4c3.2,0,6.1,1.1,9,3.2
		c2.8,2.2,4.8,4.8,5.9,7.9l4.8,13.2h-12.6c-1.4,0-2.7,0.6-3.6,1.8c-0.8,1.1-1.2,2.3-1.2,3.5c0,1.3,0.4,2.5,1.3,3.6
		c0.9,1.2,2.1,1.8,3.6,1.8h19.5v-35h8.8v43.7h-28.4c-3.8,0-7-1.4-9.6-4.1c-2.7-2.8-4-6.1-4-10c0-3.5,1.1-6.5,3.4-9.3
		c2.2-2.7,5-4.2,8.4-4.6l2-0.3l-0.8-1.8c-1.8-4.1-4.4-5-6.3-5h-14.5v35h-8.8v-43.7L341.6,370.4L341.6,370.4z"/>
	
		<linearGradient id="SVGID_00000039822314222007420580000013387188241881408411_" gradientUnits="userSpaceOnUse" x1="86.579" y1="632.4948" x2="103.2074" y2="-4.6547" gradientTransform="matrix(-1 0 0 1 376.909 0)">
		<stop  offset="0" style="stop-color:#000C19"/>
		<stop  offset="0.41" style="stop-color:#000F1E"/>
		<stop  offset="0.91" style="stop-color:#001B2D"/>
		<stop  offset="1" style="stop-color:#001E31"/>
	</linearGradient>
	<path style="fill:url(#SVGID_00000039822314222007420580000013387188241881408411_);" d="M290,370.4c-3.2,0-6.1,1.1-9,3.2
		c-2.8,2.2-4.8,4.8-5.9,7.9l-4.8,13.2h12.6c1.4,0,2.7,0.6,3.6,1.8c0.8,1.1,1.2,2.3,1.2,3.5c0,1.3-0.4,2.5-1.3,3.6
		c-0.9,1.2-2.1,1.8-3.6,1.8h-19.5v-35h-8.8v43.7h28.4c3.8,0,7-1.4,9.6-4.1c2.7-2.8,4-6.1,4-10c0-3.5-1.1-6.5-3.4-9.3
		c-2.2-2.7-5-4.2-8.4-4.6l-2-0.3l0.8-1.8c1.8-4.1,4.4-5,6.3-5h14.5v35h8.8v-43.7L290,370.4L290,370.4z"/>
	
		<linearGradient id="SVGID_00000023994638448530706650000012169300742879492252_" gradientUnits="userSpaceOnUse" x1="150.3803" y1="634.1603" x2="167.0093" y2="-2.9887" gradientTransform="matrix(-1 0 0 1 376.909 0)">
		<stop  offset="0" style="stop-color:#000C19"/>
		<stop  offset="0.41" style="stop-color:#000F1E"/>
		<stop  offset="0.91" style="stop-color:#001B2D"/>
		<stop  offset="1" style="stop-color:#001E31"/>
	</linearGradient>
	<path style="fill:url(#SVGID_00000023994638448530706650000012169300742879492252_);" d="M214.2,370.4c3.2,0,6.1,1.1,9,3.2
		c2.8,2.2,4.8,4.8,5.9,7.9l4.8,13.2h-12.6c-1.4,0-2.7,0.6-3.6,1.8c-0.8,1.1-1.2,2.3-1.2,3.5c0,1.3,0.4,2.5,1.3,3.6
		c0.9,1.2,2.1,1.8,3.6,1.8h19.5v-35h8.8v43.7h-28.4c-3.8,0-7-1.4-9.6-4.1c-2.7-2.8-4-6.1-4-10c0-3.5,1.1-6.5,3.4-9.3
		c2.2-2.7,5-4.2,8.4-4.6l2-0.3l-0.8-1.8c-1.8-4.1-4.4-5-6.3-5h-14.5v35h-8.8v-43.7L214.2,370.4L214.2,370.4z"/>
	
		<linearGradient id="SVGID_00000170960594030797829780000016017798218969348997_" gradientUnits="userSpaceOnUse" x1="213.8575" y1="635.8174" x2="230.4854" y2="-1.3317" gradientTransform="matrix(-1 0 0 1 376.909 0)">
		<stop  offset="0" style="stop-color:#000C19"/>
		<stop  offset="0.41" style="stop-color:#000F1E"/>
		<stop  offset="0.91" style="stop-color:#001B2D"/>
		<stop  offset="1" style="stop-color:#001E31"/>
	</linearGradient>
	<path style="fill:url(#SVGID_00000170960594030797829780000016017798218969348997_);" d="M162.7,370.4c-3.2,0-6.1,1.1-9,3.2
		c-2.8,2.2-4.8,4.8-5.9,7.9l-4.8,13.2h12.6c1.4,0,2.7,0.6,3.6,1.8c0.8,1.1,1.2,2.3,1.2,3.5c0,1.3-0.4,2.5-1.3,3.6
		c-0.9,1.2-2.1,1.8-3.6,1.8h-19.5v-35h-8.8v43.7h28.4c3.8,0,7-1.4,9.6-4.1c2.7-2.8,4-6.1,4-10c0-3.5-1.1-6.5-3.4-9.3
		c-2.2-2.7-5-4.2-8.4-4.6l-2-0.3l0.8-1.8c1.8-4.1,4.4-5,6.3-5h14.5v35h8.8v-43.7L162.7,370.4L162.7,370.4z"/>
	
		<linearGradient id="SVGID_00000055675868637516444120000001091092854263290041_" gradientUnits="userSpaceOnUse" x1="277.6581" y1="637.4809" x2="294.286" y2="0.3313" gradientTransform="matrix(-1 0 0 1 376.909 0)">
		<stop  offset="0" style="stop-color:#000C19"/>
		<stop  offset="0.41" style="stop-color:#000F1E"/>
		<stop  offset="0.91" style="stop-color:#001B2D"/>
		<stop  offset="1" style="stop-color:#001E31"/>
	</linearGradient>
	<path style="fill:url(#SVGID_00000055675868637516444120000001091092854263290041_);" d="M86.9,370.4c3.2,0,6.1,1.1,9,3.2
		c2.8,2.2,4.8,4.8,5.9,7.9l4.8,13.2H93.8c-1.4,0-2.7,0.6-3.6,1.8c-0.8,1.1-1.2,2.3-1.2,3.5c0,1.3,0.4,2.5,1.3,3.6
		c0.9,1.2,2.1,1.8,3.6,1.8h19.5v-35h8.8v43.7H93.8c-3.8,0-7-1.4-9.6-4.1c-2.7-2.8-4-6.1-4-10c0-3.5,1.1-6.5,3.4-9.3
		c2.2-2.7,5-4.2,8.4-4.6l2-0.3l-0.8-1.8c-1.8-4.1-4.4-5-6.3-5H72.3v35h-8.8v-43.7L86.9,370.4L86.9,370.4z"/>
	
		<linearGradient id="SVGID_00000121979479589173925450000008483062460062306978_" gradientUnits="userSpaceOnUse" x1="341.1344" y1="639.138" x2="357.7634" y2="1.9893" gradientTransform="matrix(-1 0 0 1 376.909 0)">
		<stop  offset="0" style="stop-color:#000C19"/>
		<stop  offset="0.41" style="stop-color:#000F1E"/>
		<stop  offset="0.91" style="stop-color:#001B2D"/>
		<stop  offset="1" style="stop-color:#001E31"/>
	</linearGradient>
	<path style="fill:url(#SVGID_00000121979479589173925450000008483062460062306978_);" d="M35.3,370.4c-3.2,0-6.1,1.1-9,3.2
		c-2.8,2.2-4.8,4.8-5.9,7.9l-4.8,13.2h12.6c1.4,0,2.7,0.6,3.6,1.8c0.8,1.1,1.2,2.3,1.2,3.5c0,1.3-0.4,2.5-1.3,3.6
		c-0.9,1.2-2.1,1.8-3.6,1.8H8.8v-35H0v43.7h28.4c3.8,0,7-1.4,9.6-4.1c2.7-2.8,4-6.1,4-10c0-3.5-1.1-6.5-3.4-9.3
		c-2.2-2.7-5-4.2-8.4-4.6l-2-0.3L29,384c1.8-4.1,4.4-5,6.3-5h14.5v35h8.8v-43.7L35.3,370.4L35.3,370.4z"/>
	
		<linearGradient id="SVGID_00000129164112777699154770000008503598586447069366_" gradientUnits="userSpaceOnUse" x1="21.7205" y1="630.8027" x2="38.3488" y2="-6.3467" gradientTransform="matrix(-1 0 0 1 376.909 0)">
		<stop  offset="0" style="stop-color:#000C19"/>
		<stop  offset="0.41" style="stop-color:#000F1E"/>
		<stop  offset="0.91" style="stop-color:#001B2D"/>
		<stop  offset="1" style="stop-color:#001E31"/>
	</linearGradient>
	<path style="fill:url(#SVGID_00000129164112777699154770000008503598586447069366_);" d="M341.6,317.4c3.2,0,6.1,1.1,9,3.2
		c2.8,2.2,4.8,4.8,5.9,7.9l4.8,13.2h-12.6c-1.4,0-2.7,0.6-3.6,1.8c-0.8,1.1-1.2,2.3-1.2,3.5s0.4,2.5,1.3,3.6
		c0.9,1.2,2.1,1.8,3.6,1.8h19.5v-35h8.8v43.7h-28.4c-3.8,0-7-1.4-9.6-4.1c-2.7-2.8-4-6.1-4-10c0-3.5,1.1-6.5,3.4-9.3
		c2.2-2.7,5-4.2,8.4-4.6l2-0.3l-0.8-1.8c-1.8-4.1-4.4-5-6.3-5h-14.5v35h-8.8v-43.7L341.6,317.4L341.6,317.4z"/>
	
		<linearGradient id="SVGID_00000111155618853293518840000002517820831749326239_" gradientUnits="userSpaceOnUse" x1="85.1972" y1="632.4598" x2="101.8255" y2="-4.6897" gradientTransform="matrix(-1 0 0 1 376.909 0)">
		<stop  offset="0" style="stop-color:#000C19"/>
		<stop  offset="0.41" style="stop-color:#000F1E"/>
		<stop  offset="0.91" style="stop-color:#001B2D"/>
		<stop  offset="1" style="stop-color:#001E31"/>
	</linearGradient>
	<path style="fill:url(#SVGID_00000111155618853293518840000002517820831749326239_);" d="M290,317.4c-3.2,0-6.1,1.1-9,3.2
		c-2.8,2.2-4.8,4.8-5.9,7.9l-4.8,13.2h12.6c1.4,0,2.7,0.6,3.6,1.8c0.8,1.1,1.2,2.3,1.2,3.5c0,1.3-0.4,2.5-1.3,3.6
		c-0.9,1.2-2.1,1.8-3.6,1.8h-19.5v-35h-8.8v43.7h28.4c3.8,0,7-1.4,9.6-4.1c2.7-2.8,4-6.1,4-10c0-3.5-1.1-6.5-3.4-9.3
		c-2.2-2.7-5-4.2-8.4-4.6l-2-0.3l0.8-1.8c1.8-4.1,4.4-5,6.3-5h14.5v35h8.8v-43.7L290,317.4L290,317.4z"/>
	
		<linearGradient id="SVGID_00000130629770095682651950000007643986493822563772_" gradientUnits="userSpaceOnUse" x1="148.9985" y1="634.1232" x2="165.6274" y2="-3.0257" gradientTransform="matrix(-1 0 0 1 376.909 0)">
		<stop  offset="0" style="stop-color:#000C19"/>
		<stop  offset="0.41" style="stop-color:#000F1E"/>
		<stop  offset="0.91" style="stop-color:#001B2D"/>
		<stop  offset="1" style="stop-color:#001E31"/>
	</linearGradient>
	<path style="fill:url(#SVGID_00000130629770095682651950000007643986493822563772_);" d="M214.2,317.4c3.2,0,6.1,1.1,9,3.2
		c2.8,2.2,4.8,4.8,5.9,7.9l4.8,13.2h-12.6c-1.4,0-2.7,0.6-3.6,1.8c-0.8,1.1-1.2,2.3-1.2,3.5s0.4,2.5,1.3,3.6
		c0.9,1.2,2.1,1.8,3.6,1.8h19.5v-35h8.8v43.7h-28.4c-3.8,0-7-1.4-9.6-4.1c-2.7-2.8-4-6.1-4-10c0-3.5,1.1-6.5,3.4-9.3
		c2.2-2.7,5-4.2,8.4-4.6l2-0.3l-0.8-1.8c-1.8-4.1-4.4-5-6.3-5h-14.5v35h-8.8v-43.7L214.2,317.4L214.2,317.4z"/>
	
		<linearGradient id="SVGID_00000166657533806640889700000013374118593346169532_" gradientUnits="userSpaceOnUse" x1="212.4757" y1="635.7803" x2="229.1037" y2="-1.3687" gradientTransform="matrix(-1 0 0 1 376.909 0)">
		<stop  offset="0" style="stop-color:#000C19"/>
		<stop  offset="0.41" style="stop-color:#000F1E"/>
		<stop  offset="0.91" style="stop-color:#001B2D"/>
		<stop  offset="1" style="stop-color:#001E31"/>
	</linearGradient>
	<path style="fill:url(#SVGID_00000166657533806640889700000013374118593346169532_);" d="M162.7,317.4c-3.2,0-6.1,1.1-9,3.2
		c-2.8,2.2-4.8,4.8-5.9,7.9l-4.8,13.2h12.6c1.4,0,2.7,0.6,3.6,1.8c0.8,1.1,1.2,2.3,1.2,3.5s-0.4,2.5-1.3,3.6
		c-0.9,1.2-2.1,1.8-3.6,1.8h-19.5v-35h-8.8v43.7h28.4c3.8,0,7-1.4,9.6-4.1c2.7-2.8,4-6.1,4-10c0-3.5-1.1-6.5-3.4-9.3
		c-2.2-2.7-5-4.2-8.4-4.6l-2-0.3l0.8-1.8c1.8-4.1,4.4-5,6.3-5h14.5v35h8.8v-43.7L162.7,317.4L162.7,317.4z"/>
	
		<linearGradient id="SVGID_00000081609557892770974840000007347346585502967183_" gradientUnits="userSpaceOnUse" x1="276.2762" y1="637.4459" x2="292.9042" y2="0.2963" gradientTransform="matrix(-1 0 0 1 376.909 0)">
		<stop  offset="0" style="stop-color:#000C19"/>
		<stop  offset="0.41" style="stop-color:#000F1E"/>
		<stop  offset="0.91" style="stop-color:#001B2D"/>
		<stop  offset="1" style="stop-color:#001E31"/>
	</linearGradient>
	<path style="fill:url(#SVGID_00000081609557892770974840000007347346585502967183_);" d="M86.9,317.4c3.2,0,6.1,1.1,9,3.2
		c2.8,2.2,4.8,4.8,5.9,7.9l4.8,13.2H93.8c-1.4,0-2.7,0.6-3.6,1.8c-0.8,1.1-1.2,2.3-1.2,3.5s0.4,2.5,1.3,3.6c0.9,1.2,2.1,1.8,3.6,1.8
		h19.5v-35h8.8v43.7H93.8c-3.8,0-7-1.4-9.6-4.1c-2.7-2.8-4-6.1-4-10c0-3.5,1.1-6.5,3.4-9.3c2.2-2.7,5-4.2,8.4-4.6l2-0.3l-0.8-1.8
		c-1.8-4.1-4.4-5-6.3-5H72.3v35h-8.8v-43.7L86.9,317.4L86.9,317.4z"/>
	
		<linearGradient id="SVGID_00000093869395585897043430000000842312289334713508_" gradientUnits="userSpaceOnUse" x1="339.7529" y1="639.103" x2="356.381" y2="1.9543" gradientTransform="matrix(-1 0 0 1 376.909 0)">
		<stop  offset="0" style="stop-color:#000C19"/>
		<stop  offset="0.41" style="stop-color:#000F1E"/>
		<stop  offset="0.91" style="stop-color:#001B2D"/>
		<stop  offset="1" style="stop-color:#001E31"/>
	</linearGradient>
	<path style="fill:url(#SVGID_00000093869395585897043430000000842312289334713508_);" d="M35.3,317.4c-3.2,0-6.1,1.1-9,3.2
		c-2.8,2.2-4.8,4.8-5.9,7.9l-4.8,13.2h12.6c1.4,0,2.7,0.6,3.6,1.8c0.8,1.1,1.2,2.3,1.2,3.5c0,1.3-0.4,2.5-1.3,3.6
		c-0.9,1.2-2.1,1.8-3.6,1.8H8.8v-35H0v43.7h28.4c3.8,0,7-1.4,9.6-4.1c2.7-2.8,4-6.1,4-10c0-3.5-1.1-6.5-3.4-9.3
		c-2.2-2.7-5-4.2-8.4-4.6l-2-0.3L29,331c1.8-4.1,4.4-5,6.3-5h14.5v35h8.8v-43.7L35.3,317.4L35.3,317.4z"/>
	
		<linearGradient id="SVGID_00000045608913198327330460000006602977447366058626_" gradientUnits="userSpaceOnUse" x1="20.3526" y1="630.7677" x2="36.9809" y2="-6.3817" gradientTransform="matrix(-1 0 0 1 376.909 0)">
		<stop  offset="0" style="stop-color:#000C19"/>
		<stop  offset="0.41" style="stop-color:#000F1E"/>
		<stop  offset="0.91" style="stop-color:#001B2D"/>
		<stop  offset="1" style="stop-color:#001E31"/>
	</linearGradient>
	<path style="fill:url(#SVGID_00000045608913198327330460000006602977447366058626_);" d="M341.6,264.9c3.2,0,6.1,1.1,9,3.2
		c2.8,2.2,4.8,4.8,5.9,7.9l4.8,13.2h-12.6c-1.4,0-2.7,0.6-3.6,1.8c-0.8,1.1-1.2,2.3-1.2,3.5c0,1.3,0.4,2.5,1.3,3.6
		c0.9,1.2,2.1,1.8,3.6,1.8h19.5v-35h8.8v43.7h-28.4c-3.8,0-7-1.4-9.6-4.1c-2.7-2.8-4-6.1-4-10c0-3.5,1.1-6.5,3.4-9.3
		c2.2-2.7,5-4.2,8.4-4.6l2-0.3l-0.8-1.8c-1.8-4.1-4.4-5-6.3-5h-14.5v35h-8.8v-43.7L341.6,264.9L341.6,264.9z"/>
	
		<linearGradient id="SVGID_00000065775611870455697640000005131764136180357011_" gradientUnits="userSpaceOnUse" x1="83.8293" y1="632.4227" x2="100.4577" y2="-4.7267" gradientTransform="matrix(-1 0 0 1 376.909 0)">
		<stop  offset="0" style="stop-color:#000C19"/>
		<stop  offset="0.41" style="stop-color:#000F1E"/>
		<stop  offset="0.91" style="stop-color:#001B2D"/>
		<stop  offset="1" style="stop-color:#001E31"/>
	</linearGradient>
	<path style="fill:url(#SVGID_00000065775611870455697640000005131764136180357011_);" d="M290,264.9c-3.2,0-6.1,1.1-9,3.2
		c-2.8,2.2-4.8,4.8-5.9,7.9l-4.8,13.2h12.6c1.4,0,2.7,0.6,3.6,1.8c0.8,1.1,1.2,2.3,1.2,3.5c0,1.3-0.4,2.5-1.3,3.6
		c-0.9,1.2-2.1,1.8-3.6,1.8h-19.5v-35h-8.8v43.7h28.4c3.8,0,7-1.4,9.6-4.1c2.7-2.8,4-6.1,4-10c0-3.5-1.1-6.5-3.4-9.3
		c-2.2-2.7-5-4.2-8.4-4.6l-2-0.3l0.8-1.8c1.8-4.1,4.4-5,6.3-5h14.5v35h8.8v-43.7L290,264.9L290,264.9z"/>
	
		<linearGradient id="SVGID_00000065059998504824193170000002591458135987759004_" gradientUnits="userSpaceOnUse" x1="147.631" y1="634.0883" x2="164.2591" y2="-3.0606" gradientTransform="matrix(-1 0 0 1 376.909 0)">
		<stop  offset="0" style="stop-color:#000C19"/>
		<stop  offset="0.41" style="stop-color:#000F1E"/>
		<stop  offset="0.91" style="stop-color:#001B2D"/>
		<stop  offset="1" style="stop-color:#001E31"/>
	</linearGradient>
	<path style="fill:url(#SVGID_00000065059998504824193170000002591458135987759004_);" d="M214.2,264.9c3.2,0,6.1,1.1,9,3.2
		c2.8,2.2,4.8,4.8,5.9,7.9l4.8,13.2h-12.6c-1.4,0-2.7,0.6-3.6,1.8c-0.8,1.1-1.2,2.3-1.2,3.5c0,1.3,0.4,2.5,1.3,3.6
		c0.9,1.2,2.1,1.8,3.6,1.8h19.5v-35h8.8v43.7h-28.4c-3.8,0-7-1.4-9.6-4.1c-2.7-2.8-4-6.1-4-10c0-3.5,1.1-6.5,3.4-9.3
		c2.2-2.7,5-4.2,8.4-4.6l2-0.3l-0.8-1.8c-1.8-4.1-4.4-5-6.3-5h-14.5v35h-8.8v-43.7L214.2,264.9L214.2,264.9z"/>
	
		<linearGradient id="SVGID_00000109002865073851037420000004782575790098387074_" gradientUnits="userSpaceOnUse" x1="211.1078" y1="635.7454" x2="227.7358" y2="-1.4036" gradientTransform="matrix(-1 0 0 1 376.909 0)">
		<stop  offset="0" style="stop-color:#000C19"/>
		<stop  offset="0.41" style="stop-color:#000F1E"/>
		<stop  offset="0.91" style="stop-color:#001B2D"/>
		<stop  offset="1" style="stop-color:#001E31"/>
	</linearGradient>
	<path style="fill:url(#SVGID_00000109002865073851037420000004782575790098387074_);" d="M162.7,264.9c-3.2,0-6.1,1.1-9,3.2
		c-2.8,2.2-4.8,4.8-5.9,7.9l-4.8,13.2h12.6c1.4,0,2.7,0.6,3.6,1.8c0.8,1.1,1.2,2.3,1.2,3.5c0,1.3-0.4,2.5-1.3,3.6
		c-0.9,1.2-2.1,1.8-3.6,1.8h-19.5v-35h-8.8v43.7h28.4c3.8,0,7-1.4,9.6-4.1c2.7-2.8,4-6.1,4-10c0-3.5-1.1-6.5-3.4-9.3
		c-2.2-2.7-5-4.2-8.4-4.6l-2-0.3l0.8-1.8c1.8-4.1,4.4-5,6.3-5h14.5v35h8.8v-43.7L162.7,264.9L162.7,264.9z"/>
	
		<linearGradient id="SVGID_00000138545027973653780810000017600261994285733293_" gradientUnits="userSpaceOnUse" x1="274.9078" y1="637.4109" x2="291.5368" y2="0.2614" gradientTransform="matrix(-1 0 0 1 376.909 0)">
		<stop  offset="0" style="stop-color:#000C19"/>
		<stop  offset="0.41" style="stop-color:#000F1E"/>
		<stop  offset="0.91" style="stop-color:#001B2D"/>
		<stop  offset="1" style="stop-color:#001E31"/>
	</linearGradient>
	<path style="fill:url(#SVGID_00000138545027973653780810000017600261994285733293_);" d="M86.9,264.9c3.2,0,6.1,1.1,9,3.2
		c2.8,2.2,4.8,4.8,5.9,7.9l4.8,13.2H93.8c-1.4,0-2.7,0.6-3.6,1.8c-0.8,1.1-1.2,2.3-1.2,3.5c0,1.3,0.4,2.5,1.3,3.6
		c0.9,1.2,2.1,1.8,3.6,1.8h19.5v-35h8.8v43.7H93.8c-3.8,0-7-1.4-9.6-4.1c-2.7-2.8-4-6.1-4-10c0-3.5,1.1-6.5,3.4-9.3
		c2.2-2.7,5-4.2,8.4-4.6l2-0.3l-0.8-1.8c-1.8-4.1-4.4-5-6.3-5H72.3v35h-8.8v-43.7L86.9,264.9L86.9,264.9z"/>
	
		<linearGradient id="SVGID_00000098901396850672478090000008814092481493676464_" gradientUnits="userSpaceOnUse" x1="338.3852" y1="639.066" x2="355.0132" y2="1.9164" gradientTransform="matrix(-1 0 0 1 376.909 0)">
		<stop  offset="0" style="stop-color:#000C19"/>
		<stop  offset="0.41" style="stop-color:#000F1E"/>
		<stop  offset="0.91" style="stop-color:#001B2D"/>
		<stop  offset="1" style="stop-color:#001E31"/>
	</linearGradient>
	<path style="fill:url(#SVGID_00000098901396850672478090000008814092481493676464_);" d="M35.3,264.9c-3.2,0-6.1,1.1-9,3.2
		c-2.8,2.2-4.8,4.8-5.9,7.9l-4.8,13.2h12.6c1.4,0,2.7,0.6,3.6,1.8c0.8,1.1,1.2,2.3,1.2,3.5c0,1.3-0.4,2.5-1.3,3.6
		c-0.9,1.2-2.1,1.8-3.6,1.8H8.8v-35H0v43.7h28.4c3.8,0,7-1.4,9.6-4.1c2.7-2.8,4-6.1,4-10c0-3.5-1.1-6.5-3.4-9.3
		c-2.2-2.7-5-4.2-8.4-4.6l-2-0.3l0.8-1.8c1.8-4.1,4.4-5,6.3-5h14.5v35h8.8v-43.7L35.3,264.9L35.3,264.9z"/>
	
		<linearGradient id="SVGID_00000147906563490274855230000000488438928864438428_" gradientUnits="userSpaceOnUse" x1="18.9708" y1="630.7306" x2="35.5991" y2="-6.4186" gradientTransform="matrix(-1 0 0 1 376.909 0)">
		<stop  offset="0" style="stop-color:#000C19"/>
		<stop  offset="0.41" style="stop-color:#000F1E"/>
		<stop  offset="0.91" style="stop-color:#001B2D"/>
		<stop  offset="1" style="stop-color:#001E31"/>
	</linearGradient>
	<path style="fill:url(#SVGID_00000147906563490274855230000000488438928864438428_);" d="M341.6,211.9c3.2,0,6.1,1.1,9,3.2
		c2.8,2.2,4.8,4.8,5.9,7.9l4.8,13.2h-12.6c-1.4,0-2.7,0.6-3.6,1.8c-0.8,1.1-1.2,2.3-1.2,3.5c0,1.3,0.4,2.5,1.3,3.6
		c0.9,1.2,2.1,1.8,3.6,1.8h19.5v-35h8.8v43.7h-28.4c-3.8,0-7-1.4-9.6-4.1c-2.7-2.8-4-6.1-4-10c0-3.5,1.1-6.5,3.4-9.3
		c2.2-2.7,5-4.2,8.4-4.6l2-0.3l-0.8-1.8c-1.8-4.1-4.4-5-6.3-5h-14.5v35h-8.8v-43.7L341.6,211.9L341.6,211.9z"/>
	
		<linearGradient id="SVGID_00000178887938534132140820000011387998510738257055_" gradientUnits="userSpaceOnUse" x1="82.4475" y1="632.3878" x2="99.0758" y2="-4.7616" gradientTransform="matrix(-1 0 0 1 376.909 0)">
		<stop  offset="0" style="stop-color:#000C19"/>
		<stop  offset="0.41" style="stop-color:#000F1E"/>
		<stop  offset="0.91" style="stop-color:#001B2D"/>
		<stop  offset="1" style="stop-color:#001E31"/>
	</linearGradient>
	<path style="fill:url(#SVGID_00000178887938534132140820000011387998510738257055_);" d="M290,211.9c-3.2,0-6.1,1.1-9,3.2
		c-2.8,2.2-4.8,4.8-5.9,7.9l-4.8,13.2h12.6c1.4,0,2.7,0.6,3.6,1.8c0.8,1.1,1.2,2.3,1.2,3.5c0,1.3-0.4,2.5-1.3,3.6
		c-0.9,1.2-2.1,1.8-3.6,1.8h-19.5v-35h-8.8v43.7h28.4c3.8,0,7-1.4,9.6-4.1c2.7-2.8,4-6.1,4-10c0-3.5-1.1-6.5-3.4-9.3
		c-2.2-2.7-5-4.2-8.4-4.6l-2-0.3l0.8-1.8c1.8-4.1,4.4-5,6.3-5h14.5v35h8.8v-43.7L290,211.9L290,211.9z"/>
	
		<linearGradient id="SVGID_00000132075454634882039530000010716003815262883484_" gradientUnits="userSpaceOnUse" x1="146.2493" y1="634.0533" x2="162.8772" y2="-3.0955" gradientTransform="matrix(-1 0 0 1 376.909 0)">
		<stop  offset="0" style="stop-color:#000C19"/>
		<stop  offset="0.41" style="stop-color:#000F1E"/>
		<stop  offset="0.91" style="stop-color:#001B2D"/>
		<stop  offset="1" style="stop-color:#001E31"/>
	</linearGradient>
	<path style="fill:url(#SVGID_00000132075454634882039530000010716003815262883484_);" d="M214.2,211.9c3.2,0,6.1,1.1,9,3.2
		c2.8,2.2,4.8,4.8,5.9,7.9l4.8,13.2h-12.6c-1.4,0-2.7,0.6-3.6,1.8c-0.8,1.1-1.2,2.3-1.2,3.5c0,1.3,0.4,2.5,1.3,3.6
		c0.9,1.2,2.1,1.8,3.6,1.8h19.5v-35h8.8v43.7h-28.4c-3.8,0-7-1.4-9.6-4.1c-2.7-2.8-4-6.1-4-10c0-3.5,1.1-6.5,3.4-9.3
		c2.2-2.7,5-4.2,8.4-4.6l2-0.3l-0.8-1.8c-1.8-4.1-4.4-5-6.3-5h-14.5v35h-8.8v-43.7L214.2,211.9L214.2,211.9z"/>
	
		<linearGradient id="SVGID_00000071536122444107398000000007229155744303985822_" gradientUnits="userSpaceOnUse" x1="209.726" y1="635.7084" x2="226.354" y2="-1.4405" gradientTransform="matrix(-1 0 0 1 376.909 0)">
		<stop  offset="0" style="stop-color:#000C19"/>
		<stop  offset="0.41" style="stop-color:#000F1E"/>
		<stop  offset="0.91" style="stop-color:#001B2D"/>
		<stop  offset="1" style="stop-color:#001E31"/>
	</linearGradient>
	<path style="fill:url(#SVGID_00000071536122444107398000000007229155744303985822_);" d="M162.7,211.9c-3.2,0-6.1,1.1-9,3.2
		c-2.8,2.2-4.8,4.8-5.9,7.9l-4.8,13.2h12.6c1.4,0,2.7,0.6,3.6,1.8c0.8,1.1,1.2,2.3,1.2,3.5c0,1.3-0.4,2.5-1.3,3.6
		c-0.9,1.2-2.1,1.8-3.6,1.8h-19.5v-35h-8.8v43.7h28.4c3.8,0,7-1.4,9.6-4.1c2.7-2.8,4-6.1,4-10c0-3.5-1.1-6.5-3.4-9.3
		c-2.2-2.7-5-4.2-8.4-4.6l-2-0.3l0.8-1.8c1.8-4.1,4.4-5,6.3-5h14.5v35h8.8v-43.7L162.7,211.9L162.7,211.9z"/>
	
		<linearGradient id="SVGID_00000067936142917609215470000015022321094080803480_" gradientUnits="userSpaceOnUse" x1="273.5266" y1="637.3739" x2="290.1546" y2="0.2245" gradientTransform="matrix(-1 0 0 1 376.909 0)">
		<stop  offset="0" style="stop-color:#000C19"/>
		<stop  offset="0.41" style="stop-color:#000F1E"/>
		<stop  offset="0.91" style="stop-color:#001B2D"/>
		<stop  offset="1" style="stop-color:#001E31"/>
	</linearGradient>
	<path style="fill:url(#SVGID_00000067936142917609215470000015022321094080803480_);" d="M86.9,211.9c3.2,0,6.1,1.1,9,3.2
		c2.8,2.2,4.8,4.8,5.9,7.9l4.8,13.2H93.8c-1.4,0-2.7,0.6-3.6,1.8c-0.8,1.1-1.2,2.3-1.2,3.5c0,1.3,0.4,2.5,1.3,3.6
		c0.9,1.2,2.1,1.8,3.6,1.8h19.5v-35h8.8v43.7H93.8c-3.8,0-7-1.4-9.6-4.1c-2.7-2.8-4-6.1-4-10c0-3.5,1.1-6.5,3.4-9.3
		c2.2-2.7,5-4.2,8.4-4.6l2-0.3l-0.8-1.8c-1.8-4.1-4.4-5-6.3-5H72.3v35h-8.8v-43.7L86.9,211.9L86.9,211.9z"/>
	
		<linearGradient id="SVGID_00000131367259636075234700000004145150911028074405_" gradientUnits="userSpaceOnUse" x1="337.0027" y1="639.031" x2="353.6317" y2="1.8814" gradientTransform="matrix(-1 0 0 1 376.909 0)">
		<stop  offset="0" style="stop-color:#000C19"/>
		<stop  offset="0.41" style="stop-color:#000F1E"/>
		<stop  offset="0.91" style="stop-color:#001B2D"/>
		<stop  offset="1" style="stop-color:#001E31"/>
	</linearGradient>
	<path style="fill:url(#SVGID_00000131367259636075234700000004145150911028074405_);" d="M35.3,211.9c-3.2,0-6.1,1.1-9,3.2
		c-2.8,2.2-4.8,4.8-5.9,7.9l-4.8,13.2h12.6c1.4,0,2.7,0.6,3.6,1.8c0.8,1.1,1.2,2.3,1.2,3.5c0,1.3-0.4,2.5-1.3,3.6
		c-0.9,1.2-2.1,1.8-3.6,1.8H8.8v-35H0v43.7h28.4c3.8,0,7-1.4,9.6-4.1c2.7-2.8,4-6.1,4-10c0-3.5-1.1-6.5-3.4-9.3
		c-2.2-2.7-5-4.2-8.4-4.6l-2-0.3l0.8-1.8c1.8-4.1,4.4-5,6.3-5h14.5v35h8.8v-43.7L35.3,211.9L35.3,211.9z"/>
	
		<linearGradient id="SVGID_00000155115251080386954260000010417689964636192939_" gradientUnits="userSpaceOnUse" x1="17.5889" y1="630.6956" x2="34.2172" y2="-6.4535" gradientTransform="matrix(-1 0 0 1 376.909 0)">
		<stop  offset="0" style="stop-color:#000C19"/>
		<stop  offset="0.41" style="stop-color:#000F1E"/>
		<stop  offset="0.91" style="stop-color:#001B2D"/>
		<stop  offset="1" style="stop-color:#001E31"/>
	</linearGradient>
	<path style="fill:url(#SVGID_00000155115251080386954260000010417689964636192939_);" d="M341.6,159c3.2,0,6.1,1.1,9,3.2
		c2.8,2.2,4.8,4.8,5.9,7.9l4.8,13.2h-12.6c-1.4,0-2.7,0.6-3.6,1.8c-0.8,1.1-1.2,2.3-1.2,3.5c0,1.3,0.4,2.5,1.3,3.6
		c0.9,1.2,2.1,1.8,3.6,1.8h19.5v-35h8.8v43.7h-28.4c-3.8,0-7-1.4-9.6-4.1c-2.7-2.8-4-6.1-4-10c0-3.5,1.1-6.5,3.4-9.3
		c2.2-2.7,5-4.2,8.4-4.6l2-0.3l-0.8-1.8c-1.8-4.1-4.4-5-6.3-5h-14.5v35h-8.8V159L341.6,159L341.6,159z"/>
	
		<linearGradient id="SVGID_00000022557236553415882710000009423013006007793837_" gradientUnits="userSpaceOnUse" x1="81.0657" y1="632.3507" x2="97.694" y2="-4.7986" gradientTransform="matrix(-1 0 0 1 376.909 0)">
		<stop  offset="0" style="stop-color:#000C19"/>
		<stop  offset="0.41" style="stop-color:#000F1E"/>
		<stop  offset="0.91" style="stop-color:#001B2D"/>
		<stop  offset="1" style="stop-color:#001E31"/>
	</linearGradient>
	<path style="fill:url(#SVGID_00000022557236553415882710000009423013006007793837_);" d="M290,159c-3.2,0-6.1,1.1-9,3.2
		c-2.8,2.2-4.8,4.8-5.9,7.9l-4.8,13.2h12.6c1.4,0,2.7,0.6,3.6,1.8c0.8,1.1,1.2,2.3,1.2,3.5c0,1.3-0.4,2.5-1.3,3.6
		c-0.9,1.2-2.1,1.8-3.6,1.8h-19.5v-35h-8.8v43.7h28.4c3.8,0,7-1.4,9.6-4.1c2.7-2.8,4-6.1,4-10c0-3.5-1.1-6.5-3.4-9.3
		c-2.2-2.7-5-4.2-8.4-4.6l-2-0.3l0.8-1.8c1.8-4.1,4.4-5,6.3-5h14.5v35h8.8V159L290,159L290,159z"/>
	
		<linearGradient id="SVGID_00000106860448634071494690000010236607571318783626_" gradientUnits="userSpaceOnUse" x1="144.8667" y1="634.0162" x2="161.4957" y2="-3.1325" gradientTransform="matrix(-1 0 0 1 376.909 0)">
		<stop  offset="0" style="stop-color:#000C19"/>
		<stop  offset="0.41" style="stop-color:#000F1E"/>
		<stop  offset="0.91" style="stop-color:#001B2D"/>
		<stop  offset="1" style="stop-color:#001E31"/>
	</linearGradient>
	<path style="fill:url(#SVGID_00000106860448634071494690000010236607571318783626_);" d="M214.2,159c3.2,0,6.1,1.1,9,3.2
		c2.8,2.2,4.8,4.8,5.9,7.9l4.8,13.2h-12.6c-1.4,0-2.7,0.6-3.6,1.8c-0.8,1.1-1.2,2.3-1.2,3.5c0,1.3,0.4,2.5,1.3,3.6
		c0.9,1.2,2.1,1.8,3.6,1.8h19.5v-35h8.8v43.7h-28.4c-3.8,0-7-1.4-9.6-4.1c-2.7-2.8-4-6.1-4-10c0-3.5,1.1-6.5,3.4-9.3
		c2.2-2.7,5-4.2,8.4-4.6l2-0.3l-0.8-1.8c-1.8-4.1-4.4-5-6.3-5h-14.5v35h-8.8V159L214.2,159L214.2,159z"/>
	
		<linearGradient id="SVGID_00000153703864044275860370000001951726501831718827_" gradientUnits="userSpaceOnUse" x1="208.3442" y1="635.6733" x2="224.9722" y2="-1.4755" gradientTransform="matrix(-1 0 0 1 376.909 0)">
		<stop  offset="0" style="stop-color:#000C19"/>
		<stop  offset="0.41" style="stop-color:#000F1E"/>
		<stop  offset="0.91" style="stop-color:#001B2D"/>
		<stop  offset="1" style="stop-color:#001E31"/>
	</linearGradient>
	<path style="fill:url(#SVGID_00000153703864044275860370000001951726501831718827_);" d="M162.7,159c-3.2,0-6.1,1.1-9,3.2
		c-2.8,2.2-4.8,4.8-5.9,7.9l-4.8,13.2h12.6c1.4,0,2.7,0.6,3.6,1.8c0.8,1.1,1.2,2.3,1.2,3.5c0,1.3-0.4,2.5-1.3,3.6
		c-0.9,1.2-2.1,1.8-3.6,1.8h-19.5v-35h-8.8v43.7h28.4c3.8,0,7-1.4,9.6-4.1c2.7-2.8,4-6.1,4-10c0-3.5-1.1-6.5-3.4-9.3
		c-2.2-2.7-5-4.2-8.4-4.6l-2-0.3l0.8-1.8c1.8-4.1,4.4-5,6.3-5h14.5v35h8.8V159L162.7,159L162.7,159z"/>
	
		<linearGradient id="SVGID_00000163760571388268119060000002682794278341813139_" gradientUnits="userSpaceOnUse" x1="272.1447" y1="637.3387" x2="288.7728" y2="0.1896" gradientTransform="matrix(-1 0 0 1 376.909 0)">
		<stop  offset="0" style="stop-color:#000C19"/>
		<stop  offset="0.41" style="stop-color:#000F1E"/>
		<stop  offset="0.91" style="stop-color:#001B2D"/>
		<stop  offset="1" style="stop-color:#001E31"/>
	</linearGradient>
	<path style="fill:url(#SVGID_00000163760571388268119060000002682794278341813139_);" d="M86.9,159c3.2,0,6.1,1.1,9,3.2
		c2.8,2.2,4.8,4.8,5.9,7.9l4.8,13.2H93.8c-1.4,0-2.7,0.6-3.6,1.8c-0.8,1.1-1.2,2.3-1.2,3.5c0,1.3,0.4,2.5,1.3,3.6
		c0.9,1.2,2.1,1.8,3.6,1.8h19.5v-35h8.8v43.7H93.8c-3.8,0-7-1.4-9.6-4.1c-2.7-2.8-4-6.1-4-10c0-3.5,1.1-6.5,3.4-9.3
		c2.2-2.7,5-4.2,8.4-4.6l2-0.3l-0.8-1.8c-1.8-4.1-4.4-5-6.3-5H72.3v35h-8.8V159L86.9,159L86.9,159z"/>
	
		<linearGradient id="SVGID_00000051343182496440159880000006091849498449839245_" gradientUnits="userSpaceOnUse" x1="335.6208" y1="638.9939" x2="352.2498" y2="1.8445" gradientTransform="matrix(-1 0 0 1 376.909 0)">
		<stop  offset="0" style="stop-color:#000C19"/>
		<stop  offset="0.41" style="stop-color:#000F1E"/>
		<stop  offset="0.91" style="stop-color:#001B2D"/>
		<stop  offset="1" style="stop-color:#001E31"/>
	</linearGradient>
	<path style="fill:url(#SVGID_00000051343182496440159880000006091849498449839245_);" d="M35.3,159c-3.2,0-6.1,1.1-9,3.2
		c-2.8,2.2-4.8,4.8-5.9,7.9l-4.8,13.2h12.6c1.4,0,2.7,0.6,3.6,1.8c0.8,1.1,1.2,2.3,1.2,3.5c0,1.3-0.4,2.5-1.3,3.6
		c-0.9,1.2-2.1,1.8-3.6,1.8H8.8v-35H0v43.7h28.4c3.8,0,7-1.4,9.6-4.1c2.7-2.8,4-6.1,4-10c0-3.5-1.1-6.5-3.4-9.3
		c-2.2-2.7-5-4.2-8.4-4.6l-2-0.3l0.8-1.8c1.8-4.1,4.4-5,6.3-5h14.5v35h8.8V159L35.3,159L35.3,159z"/>
	
		<linearGradient id="SVGID_00000088841609087065623590000008745734315766256769_" gradientUnits="userSpaceOnUse" x1="16.2071" y1="630.6585" x2="32.8354" y2="-6.4905" gradientTransform="matrix(-1 0 0 1 376.909 0)">
		<stop  offset="0" style="stop-color:#000C19"/>
		<stop  offset="0.41" style="stop-color:#000F1E"/>
		<stop  offset="0.91" style="stop-color:#001B2D"/>
		<stop  offset="1" style="stop-color:#001E31"/>
	</linearGradient>
	<path style="fill:url(#SVGID_00000088841609087065623590000008745734315766256769_);" d="M341.6,106c3.2,0,6.1,1.1,9,3.2
		c2.8,2.2,4.8,4.8,5.9,7.9l4.8,13.2h-12.6c-1.4,0-2.7,0.6-3.6,1.8c-0.8,1.1-1.2,2.3-1.2,3.5c0,1.3,0.4,2.5,1.3,3.6
		c0.9,1.2,2.1,1.8,3.6,1.8h19.5v-35h8.8v43.7h-28.4c-3.8,0-7-1.4-9.6-4.1c-2.7-2.8-4-6.1-4-10c0-3.5,1.1-6.5,3.4-9.3
		c2.2-2.7,5-4.2,8.4-4.6l2-0.3l-0.8-1.8c-1.8-4.1-4.4-5-6.3-5h-14.5v35h-8.8V106L341.6,106L341.6,106z"/>
	
		<linearGradient id="SVGID_00000030467337978107070340000014159617364899381175_" gradientUnits="userSpaceOnUse" x1="79.6838" y1="632.3157" x2="96.3121" y2="-4.8335" gradientTransform="matrix(-1 0 0 1 376.909 0)">
		<stop  offset="0" style="stop-color:#000C19"/>
		<stop  offset="0.41" style="stop-color:#000F1E"/>
		<stop  offset="0.91" style="stop-color:#001B2D"/>
		<stop  offset="1" style="stop-color:#001E31"/>
	</linearGradient>
	<path style="fill:url(#SVGID_00000030467337978107070340000014159617364899381175_);" d="M290,106c-3.2,0-6.1,1.1-9,3.2
		c-2.8,2.2-4.8,4.8-5.9,7.9l-4.8,13.2h12.6c1.4,0,2.7,0.6,3.6,1.8c0.8,1.1,1.2,2.3,1.2,3.5c0,1.3-0.4,2.5-1.3,3.6
		c-0.9,1.2-2.1,1.8-3.6,1.8h-19.5v-35h-8.8v43.7h28.4c3.8,0,7-1.4,9.6-4.1c2.7-2.8,4-6.1,4-10c0-3.5-1.1-6.5-3.4-9.3
		c-2.2-2.7-5-4.2-8.4-4.6l-2-0.3l0.8-1.8c1.8-4.1,4.4-5,6.3-5h14.5v35h8.8V106L290,106L290,106z"/>
	
		<linearGradient id="SVGID_00000134247085787853255350000016517493285963290028_" gradientUnits="userSpaceOnUse" x1="143.4848" y1="633.9811" x2="160.1138" y2="-3.1684" gradientTransform="matrix(-1 0 0 1 376.909 0)">
		<stop  offset="0" style="stop-color:#000C19"/>
		<stop  offset="0.41" style="stop-color:#000F1E"/>
		<stop  offset="0.91" style="stop-color:#001B2D"/>
		<stop  offset="1" style="stop-color:#001E31"/>
	</linearGradient>
	<path style="fill:url(#SVGID_00000134247085787853255350000016517493285963290028_);" d="M214.2,106c3.2,0,6.1,1.1,9,3.2
		c2.8,2.2,4.8,4.8,5.9,7.9l4.8,13.2h-12.6c-1.4,0-2.7,0.6-3.6,1.8c-0.8,1.1-1.2,2.3-1.2,3.5c0,1.3,0.4,2.5,1.3,3.6
		c0.9,1.2,2.1,1.8,3.6,1.8h19.5v-35h8.8v43.7h-28.4c-3.8,0-7-1.4-9.6-4.1c-2.7-2.8-4-6.1-4-10c0-3.5,1.1-6.5,3.4-9.3
		c2.2-2.7,5-4.2,8.4-4.6l2-0.3l-0.8-1.8c-1.8-4.1-4.4-5-6.3-5h-14.5v35h-8.8V106L214.2,106L214.2,106z"/>
	
		<linearGradient id="SVGID_00000179647674095213219540000006848084622097447053_" gradientUnits="userSpaceOnUse" x1="206.9624" y1="635.6362" x2="223.5904" y2="-1.5124" gradientTransform="matrix(-1 0 0 1 376.909 0)">
		<stop  offset="0" style="stop-color:#000C19"/>
		<stop  offset="0.41" style="stop-color:#000F1E"/>
		<stop  offset="0.91" style="stop-color:#001B2D"/>
		<stop  offset="1" style="stop-color:#001E31"/>
	</linearGradient>
	<path style="fill:url(#SVGID_00000179647674095213219540000006848084622097447053_);" d="M162.7,106c-3.2,0-6.1,1.1-9,3.2
		c-2.8,2.2-4.8,4.8-5.9,7.9l-4.8,13.2h12.6c1.4,0,2.7,0.6,3.6,1.8c0.8,1.1,1.2,2.3,1.2,3.5c0,1.3-0.4,2.5-1.3,3.6
		c-0.9,1.2-2.1,1.8-3.6,1.8h-19.5v-35h-8.8v43.7h28.4c3.8,0,7-1.4,9.6-4.1c2.7-2.8,4-6.1,4-10c0-3.5-1.1-6.5-3.4-9.3
		c-2.2-2.7-5-4.2-8.4-4.6l-2-0.3l0.8-1.8c1.8-4.1,4.4-5,6.3-5h14.5v35h8.8V106L162.7,106L162.7,106z"/>
	
		<linearGradient id="SVGID_00000027599843141957289170000013222463921569512076_" gradientUnits="userSpaceOnUse" x1="270.7629" y1="637.3017" x2="287.391" y2="0.1525" gradientTransform="matrix(-1 0 0 1 376.909 0)">
		<stop  offset="0" style="stop-color:#000C19"/>
		<stop  offset="0.41" style="stop-color:#000F1E"/>
		<stop  offset="0.91" style="stop-color:#001B2D"/>
		<stop  offset="1" style="stop-color:#001E31"/>
	</linearGradient>
	<path style="fill:url(#SVGID_00000027599843141957289170000013222463921569512076_);" d="M86.9,106c3.2,0,6.1,1.1,9,3.2
		c2.8,2.2,4.8,4.8,5.9,7.9l4.8,13.2H93.8c-1.4,0-2.7,0.6-3.6,1.8c-0.8,1.1-1.2,2.3-1.2,3.5c0,1.3,0.4,2.5,1.3,3.6
		c0.9,1.2,2.1,1.8,3.6,1.8h19.5v-35h8.8v43.7H93.8c-3.8,0-7-1.4-9.6-4.1c-2.7-2.8-4-6.1-4-10c0-3.5,1.1-6.5,3.4-9.3
		c2.2-2.7,5-4.2,8.4-4.6l2-0.3l-0.8-1.8c-1.8-4.1-4.4-5-6.3-5H72.3v35h-8.8V106L86.9,106L86.9,106z"/>
	
		<linearGradient id="SVGID_00000027568539284159092540000000094668612370758845_" gradientUnits="userSpaceOnUse" x1="334.2397" y1="638.9589" x2="350.8677" y2="1.8096" gradientTransform="matrix(-1 0 0 1 376.909 0)">
		<stop  offset="0" style="stop-color:#000C19"/>
		<stop  offset="0.41" style="stop-color:#000F1E"/>
		<stop  offset="0.91" style="stop-color:#001B2D"/>
		<stop  offset="1" style="stop-color:#001E31"/>
	</linearGradient>
	<path style="fill:url(#SVGID_00000027568539284159092540000000094668612370758845_);" d="M35.3,106c-3.2,0-6.1,1.1-9,3.2
		c-2.8,2.2-4.8,4.8-5.9,7.9l-4.8,13.2h12.6c1.4,0,2.7,0.6,3.6,1.8c0.8,1.1,1.2,2.3,1.2,3.5c0,1.3-0.4,2.5-1.3,3.6
		c-0.9,1.2-2.1,1.8-3.6,1.8H8.8v-35H0v43.7h28.4c3.8,0,7-1.4,9.6-4.1c2.7-2.8,4-6.1,4-10c0-3.5-1.1-6.5-3.4-9.3
		c-2.2-2.7-5-4.2-8.4-4.6l-2-0.3l0.8-1.8c1.8-4.1,4.4-5,6.3-5h14.5v35h8.8V106L35.3,106L35.3,106z"/>
	
		<linearGradient id="SVGID_00000110447040511089877760000001147259145520335015_" gradientUnits="userSpaceOnUse" x1="14.8252" y1="630.6235" x2="31.4536" y2="-6.5254" gradientTransform="matrix(-1 0 0 1 376.909 0)">
		<stop  offset="0" style="stop-color:#000C19"/>
		<stop  offset="0.41" style="stop-color:#000F1E"/>
		<stop  offset="0.91" style="stop-color:#001B2D"/>
		<stop  offset="1" style="stop-color:#001E31"/>
	</linearGradient>
	<path style="fill:url(#SVGID_00000110447040511089877760000001147259145520335015_);" d="M341.6,53c3.2,0,6.1,1.1,9,3.2
		c2.8,2.2,4.8,4.8,5.9,7.9l4.8,13.2h-12.6c-1.4,0-2.7,0.6-3.6,1.8c-0.8,1.1-1.2,2.3-1.2,3.5c0,1.3,0.4,2.5,1.3,3.6
		c0.9,1.2,2.1,1.8,3.6,1.8h19.5V53h8.8v43.7h-28.4c-3.8,0-7-1.4-9.6-4.1c-2.7-2.8-4-6.1-4-10c0-3.5,1.1-6.5,3.4-9.3
		c2.2-2.7,5-4.2,8.4-4.6l2-0.3l-0.8-1.8c-1.8-4.1-4.4-5-6.3-5h-14.5v35h-8.8V53L341.6,53L341.6,53z"/>
	
		<linearGradient id="SVGID_00000026865564364283636380000001131471610941190296_" gradientUnits="userSpaceOnUse" x1="78.302" y1="632.2786" x2="94.9303" y2="-4.8704" gradientTransform="matrix(-1 0 0 1 376.909 0)">
		<stop  offset="0" style="stop-color:#000C19"/>
		<stop  offset="0.41" style="stop-color:#000F1E"/>
		<stop  offset="0.91" style="stop-color:#001B2D"/>
		<stop  offset="1" style="stop-color:#001E31"/>
	</linearGradient>
	<path style="fill:url(#SVGID_00000026865564364283636380000001131471610941190296_);" d="M290,53c-3.2,0-6.1,1.1-9,3.2
		c-2.8,2.2-4.8,4.8-5.9,7.9l-4.8,13.2h12.6c1.4,0,2.7,0.6,3.6,1.8c0.8,1.1,1.2,2.3,1.2,3.5c0,1.3-0.4,2.5-1.3,3.6
		c-0.9,1.2-2.1,1.8-3.6,1.8h-19.5V53h-8.8v43.7h28.4c3.8,0,7-1.4,9.6-4.1c2.7-2.8,4-6.1,4-10c0-3.5-1.1-6.5-3.4-9.3
		c-2.2-2.7-5-4.2-8.4-4.6l-2-0.3l0.8-1.8c1.8-4.1,4.4-5,6.3-5h14.5v35h8.8V53L290,53L290,53z"/>
	
		<linearGradient id="SVGID_00000176024775031474506640000008719359127165030049_" gradientUnits="userSpaceOnUse" x1="142.1038" y1="633.9441" x2="158.7318" y2="-3.2053" gradientTransform="matrix(-1 0 0 1 376.909 0)">
		<stop  offset="0" style="stop-color:#000C19"/>
		<stop  offset="0.41" style="stop-color:#000F1E"/>
		<stop  offset="0.91" style="stop-color:#001B2D"/>
		<stop  offset="1" style="stop-color:#001E31"/>
	</linearGradient>
	<path style="fill:url(#SVGID_00000176024775031474506640000008719359127165030049_);" d="M214.2,53c3.2,0,6.1,1.1,9,3.2
		c2.8,2.2,4.8,4.8,5.9,7.9l4.8,13.2h-12.6c-1.4,0-2.7,0.6-3.6,1.8c-0.8,1.1-1.2,2.3-1.2,3.5c0,1.3,0.4,2.5,1.3,3.6
		c0.9,1.2,2.1,1.8,3.6,1.8h19.5V53h8.8v43.7h-28.4c-3.8,0-7-1.4-9.6-4.1c-2.7-2.8-4-6.1-4-10c0-3.5,1.1-6.5,3.4-9.3
		c2.2-2.7,5-4.2,8.4-4.6l2-0.3l-0.8-1.8c-1.8-4.1-4.4-5-6.3-5h-14.5v35h-8.8V53L214.2,53L214.2,53z"/>
	
		<linearGradient id="SVGID_00000119829074921093310150000003618845361725471677_" gradientUnits="userSpaceOnUse" x1="205.5797" y1="635.6012" x2="222.2087" y2="-1.5485" gradientTransform="matrix(-1 0 0 1 376.909 0)">
		<stop  offset="0" style="stop-color:#000C19"/>
		<stop  offset="0.41" style="stop-color:#000F1E"/>
		<stop  offset="0.91" style="stop-color:#001B2D"/>
		<stop  offset="1" style="stop-color:#001E31"/>
	</linearGradient>
	<path style="fill:url(#SVGID_00000119829074921093310150000003618845361725471677_);" d="M162.7,53c-3.2,0-6.1,1.1-9,3.2
		c-2.8,2.2-4.8,4.8-5.9,7.9l-4.8,13.2h12.6c1.4,0,2.7,0.6,3.6,1.8c0.8,1.1,1.2,2.3,1.2,3.5c0,1.3-0.4,2.5-1.3,3.6
		c-0.9,1.2-2.1,1.8-3.6,1.8h-19.5V53h-8.8v43.7h28.4c3.8,0,7-1.4,9.6-4.1c2.7-2.8,4-6.1,4-10c0-3.5-1.1-6.5-3.4-9.3
		c-2.2-2.7-5-4.2-8.4-4.6l-2-0.3l0.8-1.8c1.8-4.1,4.4-5,6.3-5h14.5v35h8.8V53L162.7,53L162.7,53z"/>
	
		<linearGradient id="SVGID_00000072248434210769080300000016124037437240472203_" gradientUnits="userSpaceOnUse" x1="269.3811" y1="637.2667" x2="286.0091" y2="0.1176" gradientTransform="matrix(-1 0 0 1 376.909 0)">
		<stop  offset="0" style="stop-color:#000C19"/>
		<stop  offset="0.41" style="stop-color:#000F1E"/>
		<stop  offset="0.91" style="stop-color:#001B2D"/>
		<stop  offset="1" style="stop-color:#001E31"/>
	</linearGradient>
	<path style="fill:url(#SVGID_00000072248434210769080300000016124037437240472203_);" d="M86.9,53c3.2,0,6.1,1.1,9,3.2
		c2.8,2.2,4.8,4.8,5.9,7.9l4.8,13.2H93.8c-1.4,0-2.7,0.6-3.6,1.8c-0.8,1.1-1.2,2.3-1.2,3.5c0,1.3,0.4,2.5,1.3,3.6
		c0.9,1.2,2.1,1.8,3.6,1.8h19.5V53h8.8v43.7H93.8c-3.8,0-7-1.4-9.6-4.1c-2.7-2.8-4-6.1-4-10c0-3.5,1.1-6.5,3.4-9.3
		c2.2-2.7,5-4.2,8.4-4.6l2-0.3l-0.8-1.8c-1.8-4.1-4.4-5-6.3-5H72.3v35h-8.8V53L86.9,53L86.9,53z"/>
	
		<linearGradient id="SVGID_00000013154736060368268980000005880660643696552590_" gradientUnits="userSpaceOnUse" x1="332.8579" y1="638.9219" x2="349.4859" y2="1.7726" gradientTransform="matrix(-1 0 0 1 376.909 0)">
		<stop  offset="0" style="stop-color:#000C19"/>
		<stop  offset="0.41" style="stop-color:#000F1E"/>
		<stop  offset="0.91" style="stop-color:#001B2D"/>
		<stop  offset="1" style="stop-color:#001E31"/>
	</linearGradient>
	<path style="fill:url(#SVGID_00000013154736060368268980000005880660643696552590_);" d="M35.3,53c-3.2,0-6.1,1.1-9,3.2
		c-2.8,2.2-4.8,4.8-5.9,7.9l-4.8,13.2h12.6c1.4,0,2.7,0.6,3.6,1.8c0.8,1.1,1.2,2.3,1.2,3.5c0,1.3-0.4,2.5-1.3,3.6
		C31,87.4,29.8,88,28.3,88H8.8V53H0v43.7h28.4c3.8,0,7-1.4,9.6-4.1c2.7-2.8,4-6.1,4-10c0-3.5-1.1-6.5-3.4-9.3
		c-2.2-2.7-5-4.2-8.4-4.6l-2-0.3l0.8-1.8c1.8-4.1,4.4-5,6.3-5h14.5v35h8.8V53L35.3,53L35.3,53z"/>
	
		<linearGradient id="SVGID_00000158029587560667020460000010695600430343123101_" gradientUnits="userSpaceOnUse" x1="13.4434" y1="630.5865" x2="30.0717" y2="-6.5623" gradientTransform="matrix(-1 0 0 1 376.909 0)">
		<stop  offset="0" style="stop-color:#000C19"/>
		<stop  offset="0.41" style="stop-color:#000F1E"/>
		<stop  offset="0.91" style="stop-color:#001B2D"/>
		<stop  offset="1" style="stop-color:#001E31"/>
	</linearGradient>
	<path style="fill:url(#SVGID_00000158029587560667020460000010695600430343123101_);" d="M341.6,0c3.2,0,6.1,1.1,9,3.2
		c2.8,2.2,4.8,4.8,5.9,7.9l4.8,13.2h-12.6c-1.4,0-2.7,0.6-3.6,1.8c-0.8,1.1-1.2,2.3-1.2,3.5c0,1.3,0.4,2.5,1.3,3.6
		c0.9,1.2,2.1,1.8,3.6,1.8h19.5V0h8.8v43.7h-28.4c-3.8,0-7-1.4-9.6-4.1c-2.7-2.8-4-6.1-4-10c0-3.5,1.1-6.5,3.4-9.3
		c2.2-2.7,5-4.2,8.4-4.6l2-0.3l-0.8-1.8c-1.8-4.1-4.4-5-6.3-5h-14.5v35h-8.8V0L341.6,0L341.6,0z"/>
	
		<linearGradient id="SVGID_00000160155674270935071770000004458613926220353183_" gradientUnits="userSpaceOnUse" x1="76.9201" y1="632.2435" x2="93.5484" y2="-4.9054" gradientTransform="matrix(-1 0 0 1 376.909 0)">
		<stop  offset="0" style="stop-color:#000C19"/>
		<stop  offset="0.41" style="stop-color:#000F1E"/>
		<stop  offset="0.91" style="stop-color:#001B2D"/>
		<stop  offset="1" style="stop-color:#001E31"/>
	</linearGradient>
	<path style="fill:url(#SVGID_00000160155674270935071770000004458613926220353183_);" d="M290,0c-3.2,0-6.1,1.1-9,3.2
		c-2.8,2.2-4.8,4.8-5.9,7.9l-4.8,13.2h12.6c1.4,0,2.7,0.6,3.6,1.8c0.8,1.1,1.2,2.3,1.2,3.5c0,1.3-0.4,2.5-1.3,3.6
		c-0.9,1.2-2.1,1.8-3.6,1.8h-19.5V0h-8.8v43.7h28.4c3.8,0,7-1.4,9.6-4.1c2.7-2.8,4-6.1,4-10c0-3.5-1.1-6.5-3.4-9.3
		c-2.2-2.7-5-4.2-8.4-4.6l-2-0.3l0.8-1.8c1.8-4.1,4.4-5,6.3-5h14.5v35h8.8V0L290,0L290,0z"/>
	
		<linearGradient id="SVGID_00000027580664515746898530000011744230623259753139_" gradientUnits="userSpaceOnUse" x1="140.722" y1="633.9091" x2="157.3499" y2="-3.2404" gradientTransform="matrix(-1 0 0 1 376.909 0)">
		<stop  offset="0" style="stop-color:#000C19"/>
		<stop  offset="0.41" style="stop-color:#000F1E"/>
		<stop  offset="0.91" style="stop-color:#001B2D"/>
		<stop  offset="1" style="stop-color:#001E31"/>
	</linearGradient>
	<path style="fill:url(#SVGID_00000027580664515746898530000011744230623259753139_);" d="M214.2,0c3.2,0,6.1,1.1,9,3.2
		C226,5.4,228,8,229,11.1l4.8,13.2h-12.6c-1.4,0-2.7,0.6-3.6,1.8c-0.8,1.1-1.2,2.3-1.2,3.5c0,1.3,0.4,2.5,1.3,3.6
		c0.9,1.2,2.1,1.8,3.6,1.8h19.5V0h8.8v43.7h-28.4c-3.8,0-7-1.4-9.6-4.1c-2.7-2.8-4-6.1-4-10c0-3.5,1.1-6.5,3.4-9.3
		c2.2-2.7,5-4.2,8.4-4.6l2-0.3l-0.8-1.8c-1.8-4.1-4.4-5-6.3-5h-14.5v35h-8.8V0L214.2,0L214.2,0z"/>
	
		<linearGradient id="SVGID_00000026876326471049099080000009306182633725337017_" gradientUnits="userSpaceOnUse" x1="204.1978" y1="635.5641" x2="220.8268" y2="-1.5854" gradientTransform="matrix(-1 0 0 1 376.909 0)">
		<stop  offset="0" style="stop-color:#000C19"/>
		<stop  offset="0.41" style="stop-color:#000F1E"/>
		<stop  offset="0.91" style="stop-color:#001B2D"/>
		<stop  offset="1" style="stop-color:#001E31"/>
	</linearGradient>
	<path style="fill:url(#SVGID_00000026876326471049099080000009306182633725337017_);" d="M162.7,0c-3.2,0-6.1,1.1-9,3.2
		c-2.8,2.2-4.8,4.8-5.9,7.9l-4.8,13.2h12.6c1.4,0,2.7,0.6,3.6,1.8c0.8,1.1,1.2,2.3,1.2,3.5c0,1.3-0.4,2.5-1.3,3.6
		c-0.9,1.2-2.1,1.8-3.6,1.8h-19.5V0h-8.8v43.7h28.4c3.8,0,7-1.4,9.6-4.1c2.7-2.8,4-6.1,4-10c0-3.5-1.1-6.5-3.4-9.3
		c-2.2-2.7-5-4.2-8.4-4.6l-2-0.3l0.8-1.8c1.8-4.1,4.4-5,6.3-5h14.5v35h8.8V0L162.7,0L162.7,0z"/>
	
		<linearGradient id="SVGID_00000109011763049125105870000001235260701222088879_" gradientUnits="userSpaceOnUse" x1="267.9983" y1="637.2296" x2="284.6273" y2="8.070534e-02" gradientTransform="matrix(-1 0 0 1 376.909 0)">
		<stop  offset="0" style="stop-color:#000C19"/>
		<stop  offset="0.41" style="stop-color:#000F1E"/>
		<stop  offset="0.91" style="stop-color:#001B2D"/>
		<stop  offset="1" style="stop-color:#001E31"/>
	</linearGradient>
	<path style="fill:url(#SVGID_00000109011763049125105870000001235260701222088879_);" d="M86.9,0c3.2,0,6.1,1.1,9,3.2
		c2.8,2.2,4.8,4.8,5.9,7.9l4.8,13.2H93.8c-1.4,0-2.7,0.6-3.6,1.8c-0.8,1.1-1.2,2.3-1.2,3.5c0,1.3,0.4,2.5,1.3,3.6
		c0.9,1.2,2.1,1.8,3.6,1.8h19.5V0h8.8v43.7H93.8c-3.8,0-7-1.4-9.6-4.1c-2.7-2.8-4-6.1-4-10c0-3.5,1.1-6.5,3.4-9.3
		c2.2-2.7,5-4.2,8.4-4.6l2-0.3l-0.8-1.8c-1.8-4.1-4.4-5-6.3-5H72.3v35h-8.8V0L86.9,0L86.9,0z"/>
	
		<linearGradient id="SVGID_00000062896200325044699560000001375458543649668543_" gradientUnits="userSpaceOnUse" x1="331.476" y1="638.8868" x2="348.104" y2="1.7377" gradientTransform="matrix(-1 0 0 1 376.909 0)">
		<stop  offset="0" style="stop-color:#000C19"/>
		<stop  offset="0.41" style="stop-color:#000F1E"/>
		<stop  offset="0.91" style="stop-color:#001B2D"/>
		<stop  offset="1" style="stop-color:#001E31"/>
	</linearGradient>
	<path style="fill:url(#SVGID_00000062896200325044699560000001375458543649668543_);" d="M35.3,0c-3.2,0-6.1,1.1-9,3.2
		c-2.8,2.2-4.8,4.8-5.9,7.9l-4.8,13.2h12.6c1.4,0,2.7,0.6,3.6,1.8c0.8,1.1,1.2,2.3,1.2,3.5c0,1.3-0.4,2.5-1.3,3.6
		C31,34.4,29.8,35,28.3,35H8.8V0H0v43.7h28.4c3.8,0,7-1.4,9.6-4.1c2.7-2.8,4-6.1,4-10c0-3.5-1.1-6.5-3.4-9.3c-2.2-2.7-5-4.2-8.4-4.6
		l-2-0.3l0.8-1.8c1.8-4.1,4.4-5,6.3-5h14.5v35h8.8V0L35.3,0L35.3,0z"/>
</g>
</svg>
